<?xml version="1.0" encoding="UTF-8"?>
<svg version="1.1" xmlns="http://www.w3.org/2000/svg" width="512" height="512">
<path d="M0 0 C0.96405762 0.54269531 1.92811523 1.08539063 2.92138672 1.64453125 C15.65575597 8.8506653 28.24680636 16.29523872 40.7734375 23.85546875 C46.85037278 27.51974545 52.95613236 31.13505123 59.0625 34.75 C59.63335327 35.08799622 60.20420654 35.42599243 60.7923584 35.77423096 C63.70609537 37.49940802 66.62005339 39.22421114 69.53417969 40.94873047 C77.89146529 45.8946225 86.24539093 50.84619035 94.59881592 55.79859924 C97.73565157 57.65819932 100.87291279 59.51707717 104.01074219 61.375 C105.40040018 62.19790053 106.79004851 63.02081738 108.1796875 63.84375 C108.87162201 64.25348557 109.56355652 64.66322113 110.27645874 65.08537292 C115.72703972 68.31434747 121.17005924 71.55590242 126.61099243 74.80110168 C130.27228256 76.98182837 133.94833765 79.13369516 137.640625 81.26171875 C150.67089105 88.84080053 160.66672425 96.83688677 167 111 C167.31453125 111.68707031 167.6290625 112.37414062 167.953125 113.08203125 C173.75496476 127.04626322 173.03700737 141.7379054 167.55859375 155.6640625 C160.37650663 170.96140814 149.45726214 179.61893269 135.1875 187.875 C133.22636137 189.02179153 131.26543334 190.16894327 129.3046875 191.31640625 C127.76312988 192.21576904 127.76312988 192.21576904 126.19042969 193.13330078 C120.71696223 196.33579023 115.26585694 199.57592595 109.8125 202.8125 C107.51048888 204.17720538 105.2084089 205.541794 102.90625 206.90625 C101.74869598 207.59244464 100.59114389 208.27864255 99.43359375 208.96484375 C96.09143662 210.94580378 92.74891596 212.92614871 89.40625 214.90625 C77.94822878 221.69395148 66.49324233 228.48670953 55.04266357 235.28695679 C50.99168038 237.69264793 46.94040887 240.09785356 42.88916016 242.50309753 C39.67890073 244.40911516 36.46883845 246.31546292 33.25927734 248.22265625 C26.50673541 252.23486113 19.74960992 256.23916147 12.98583984 260.23242188 C10.14825349 261.91223588 7.31782986 263.60356942 4.48828125 265.296875 C-13.05082485 275.72983587 -29.66741375 281.85834965 -50.38671875 277.24609375 C-62.6725966 273.77115315 -71.99362898 267.99048677 -81 259 C-81.57621094 258.43539063 -82.15242188 257.87078125 -82.74609375 257.2890625 C-95.08680272 244.14700879 -96.45163308 227.53890052 -96.40405273 210.53198242 C-96.409764 208.6811736 -96.41673117 206.8303683 -96.42485046 204.97956848 C-96.4427153 199.97938805 -96.44162586 194.97938375 -96.43590808 189.97918105 C-96.43280595 185.79215793 -96.43892017 181.60516813 -96.44494683 177.41814977 C-96.4589691 167.53288841 -96.45745045 157.6477135 -96.44604492 147.76245117 C-96.43457123 137.59396614 -96.44863212 127.42574509 -96.4754414 117.25729483 C-96.4976577 108.50022001 -96.50422229 99.7432277 -96.49836498 90.98612672 C-96.49500774 85.76776289 -96.49732784 80.54956815 -96.51461601 75.33122826 C-96.53017744 70.42020265 -96.52602838 65.50956539 -96.50731087 60.59855461 C-96.50365003 58.80642517 -96.50665941 57.01426636 -96.51719666 55.22216415 C-96.61853124 36.54773964 -92.84927796 20.6650926 -79.5 6.75 C-57.01429024 -15.45602783 -26.00148493 -14.66724096 0 0 Z M-58.52734375 33.64453125 C-62.18920842 39.50157209 -63.3749597 44.88607295 -63.38768005 51.72824097 C-63.39306559 52.46306013 -63.39845113 53.1978793 -63.40399987 53.95496571 C-63.41820148 56.39446856 -63.41119533 58.83342276 -63.40405273 61.27294922 C-63.40976044 63.03128492 -63.41672624 64.78961692 -63.42485046 66.54794312 C-63.44275378 71.30837327 -63.44161868 76.0686188 -63.43590808 80.82907248 C-63.43281182 84.81004058 -63.43891362 88.79097345 -63.44494683 92.77193654 C-63.45898147 102.16748636 -63.45743988 111.56294523 -63.44604492 120.95849609 C-63.43456743 130.63565093 -63.44863563 140.3125285 -63.4754414 149.98964679 C-63.49762887 158.31263292 -63.50422883 166.63553221 -63.49836498 174.9585458 C-63.49500118 179.92308323 -63.49737203 184.88744299 -63.51461601 189.85195541 C-63.53013144 194.5224488 -63.52607876 199.19253292 -63.50731087 203.86301041 C-63.50363754 205.57135187 -63.5066966 207.27972397 -63.51719666 208.98803711 C-63.57859486 219.80823269 -63.32469529 229.3731279 -55.8125 237.875 C-48.60296368 244.29528182 -41.47968757 245.87303293 -31.875 245.55859375 C-25.08764331 244.58017439 -19.76356758 241.48311218 -14 238 C-12.54200566 237.14135122 -11.08365343 236.28330992 -9.625 235.42578125 C-6.27949173 233.44357887 -2.95058909 231.43591638 0.37109375 229.4140625 C6.46810798 225.70546899 12.60716375 222.06953999 18.75 218.4375 C21.05737238 217.07175066 23.36467339 215.70588148 25.671875 214.33984375 C26.5570153 213.81587761 26.5570153 213.81587761 27.46003723 213.28132629 C34.64420509 209.02792646 41.82187329 204.76358382 49 200.5 C57.74010197 195.30905042 66.48123088 190.11986494 75.22729492 184.93896484 C77.39708743 183.65343764 79.5665252 182.36731147 81.7355957 181.08056641 C87.25732399 177.80554238 92.78286446 174.53741327 98.31698608 171.28338623 C101.23015202 169.56952093 104.14108551 167.85188514 107.05175781 166.13378906 C108.45585712 165.30622436 109.86094117 164.48032774 111.26708984 163.65625 C127.75606911 154.82954371 127.75606911 154.82954371 138 140 C138.88808853 132.51320713 138.46062899 126.18952971 134 120 C128.47590273 114.64446048 122.14965418 110.93999033 115.50808716 107.14001465 C112.92186898 105.66016388 110.34497834 104.16440308 107.76753235 102.66934204 C106.44366087 101.90147478 105.11934862 101.13436695 103.79460144 100.36801147 C97.50989143 96.72889934 91.28155444 93.00029466 85.0625 89.25 C76.65595235 84.18919106 68.22923765 79.16540847 59.77709961 74.18115234 C51.71746602 69.42743132 43.66991763 64.65356554 35.625 59.875 C34.95522125 59.47717316 34.2854425 59.07934631 33.59536743 58.66946411 C30.84895651 57.03815402 28.10256891 55.4068047 25.35624695 53.77534485 C20.30071448 50.77219909 15.24428649 47.77056488 10.1875 44.76953125 C8.02869961 43.48823244 5.86990917 42.20691688 3.71112061 40.92559814 C2.34108885 40.11249378 0.97101372 39.29946249 -0.39910889 38.48651123 C-1.69460837 37.71781903 -2.99001111 36.94896375 -4.28530884 36.17993164 C-5.51046297 35.45283815 -6.73601744 34.72641872 -7.96200562 34.00073242 C-10.62787704 32.4206678 -13.28206972 30.82584153 -15.91894531 29.19775391 C-30.76721866 20.04141091 -46.58821279 19.8866629 -58.52734375 33.64453125 Z " fill="#F28E37" transform="translate(142,122)"/>
<path d="M0 0 C5.37553381 3.5836892 8.22011563 7.67903528 9.8125 13.875 C10.09231635 17.11114905 10.08678304 20.33141841 10.07319641 23.57809448 C10.07893473 25.03514571 10.07893473 25.03514571 10.08478898 26.52163231 C10.09509988 29.77342856 10.09113041 33.02504762 10.0871582 36.27685547 C10.09150574 38.60955977 10.09668902 40.94226264 10.10264587 43.27496338 C10.11604285 49.60967003 10.11661374 55.94431704 10.11408257 62.27903509 C10.11287803 68.23640346 10.11909019 74.19376178 10.12451603 80.15112711 C10.13538797 92.67175343 10.13323079 105.19235281 10.12713119 117.71298064 C10.12196297 129.15944701 10.13321554 140.60582826 10.15222941 152.05227779 C10.17161623 163.81368349 10.17986229 175.57504894 10.17610615 187.33647072 C10.17429272 193.93631786 10.17693559 200.53608704 10.19082069 207.13592148 C10.20339026 213.34279043 10.201463 219.54948897 10.18840981 225.75635529 C10.18604257 228.03315666 10.18878395 230.30997 10.19703293 232.58675766 C10.20748937 235.69734902 10.19940813 238.80736739 10.1867218 241.91793823 C10.19409609 242.81658848 10.20147037 243.71523872 10.20906812 244.64112079 C10.15449214 251.01220345 9.32291387 256.86820884 5.09375 261.93359375 C4.5059375 262.38863281 3.918125 262.84367187 3.3125 263.3125 C2.7246875 263.78558594 2.136875 264.25867188 1.53125 264.74609375 C-2.40212143 267.32960362 -6.6438626 267.35009517 -11.1875 266.875 C-15.87384709 265.12910599 -18.98218557 262.70357001 -22.1875 258.875 C-24.5014292 253.61388747 -24.47156792 248.72647326 -24.44819641 243.08924866 C-24.45202196 242.1090085 -24.45584751 241.12876835 -24.45978898 240.11882395 C-24.47010061 236.83705516 -24.46613028 233.55546193 -24.4621582 230.27368164 C-24.46650567 227.91965066 -24.47168893 225.56562109 -24.47764587 223.21159363 C-24.49104286 216.81910487 -24.49161379 210.42667522 -24.48908257 204.03417516 C-24.48787817 198.02356486 -24.49408977 192.01296287 -24.49951603 186.00235587 C-24.51038776 173.37112075 -24.50823075 160.73991233 -24.50213119 148.10867571 C-24.4969617 136.55806967 -24.50821894 125.00754796 -24.52722941 113.4569586 C-24.54660977 101.59046664 -24.5548635 89.72401458 -24.55110615 77.85750669 C-24.54919449 71.19789326 -24.55194321 64.5383426 -24.56582069 57.87874031 C-24.57838101 51.61688296 -24.5764718 45.35519462 -24.56340981 39.09333992 C-24.56104063 36.79515527 -24.56379085 34.49695878 -24.57203293 32.19878769 C-24.5824729 29.06157327 -24.57442142 25.92492882 -24.5617218 22.78773499 C-24.57278323 21.42371751 -24.57278323 21.42371751 -24.58406812 20.03214413 C-24.53105328 13.8067013 -23.71942872 8.7637005 -19.46875 3.9140625 C-18.8809375 3.44742188 -18.293125 2.98078125 -17.6875 2.5 C-17.0996875 2.01789063 -16.511875 1.53578125 -15.90625 1.0390625 C-11.05530784 -2.24634833 -5.28209437 -1.8642686 0 0 Z " fill="#F28E37" transform="translate(368.1875,123.125)"/>
<path d="M0 0 C4.75982924 2.62772498 7.04616381 6.26349144 8.75 11.375 C8.8423436 12.74802591 8.88084788 14.1250771 8.88422108 15.50120068 C8.88867892 16.34522196 8.89313676 17.18924324 8.89772969 18.05884093 C8.89754533 18.98625494 8.89736097 19.91366894 8.89717102 20.8691864 C8.90084771 21.85432482 8.9045244 22.83946324 8.9083125 23.85445434 C8.91936629 27.17079704 8.92319606 30.48710842 8.92700195 33.8034668 C8.93326532 36.17513631 8.939912 38.54680484 8.94691467 40.91847229 C8.96615395 48.0467209 8.97674474 55.17497009 8.98564246 62.30323741 C8.99002653 65.66088228 8.99539305 69.01852558 9.00063133 72.3761692 C9.01764336 83.53929028 9.03213709 94.70241037 9.03938007 105.86554241 C9.04128994 108.76216826 9.04321027 111.6587941 9.04516602 114.55541992 C9.04564976 115.27535371 9.0461335 115.9952875 9.0466319 116.73703746 C9.05493057 128.39710509 9.08026482 140.05707008 9.11274669 151.71709289 C9.14583029 163.69083996 9.16383002 175.66453489 9.16702431 187.6383279 C9.16918826 194.36009734 9.17791985 201.08171713 9.20348549 207.803442 C9.22673944 214.12766369 9.23101 220.45161604 9.22072411 226.77586937 C9.22022799 229.09621577 9.2265706 231.41657531 9.24028015 233.73688126 C9.25796106 236.90687596 9.25091088 240.0759001 9.23774719 243.24589539 C9.24871644 244.16215578 9.25968568 245.07841618 9.27098733 246.02244204 C9.2122492 251.88920985 8.18955416 256.52323177 4.75 261.375 C0.02401992 265.13649435 -3.95714416 266.79406298 -10.0546875 266.7265625 C-14.97727652 265.93824753 -18.89698637 262.85895043 -22.1875 259.25 C-23.92335247 256.18673093 -24.37559051 253.66246303 -24.38142776 250.21197796 C-24.38526891 249.35975649 -24.38911005 248.50753501 -24.3930676 247.62948865 C-24.39176787 246.22464843 -24.39176787 246.22464843 -24.39044189 244.79142761 C-24.39341302 243.79671096 -24.39638414 242.8019943 -24.3994453 241.77713472 C-24.40814915 238.42848179 -24.40964197 235.07986453 -24.41113281 231.73120117 C-24.41575977 229.33658267 -24.42078426 226.94196492 -24.42617798 224.54734802 C-24.43931526 218.03080255 -24.44578603 211.51426452 -24.45018864 204.99770904 C-24.45295099 200.92900128 -24.45718833 196.86029589 -24.46169281 192.79158974 C-24.47388544 181.52723814 -24.4841848 170.26288844 -24.4875679 158.99853039 C-24.48778747 158.27754798 -24.48800703 157.55656557 -24.48823325 156.81373521 C-24.48845153 156.09102495 -24.48866981 155.3683147 -24.4888947 154.62370414 C-24.48933817 153.15921096 -24.48978473 151.69471778 -24.49023438 150.23022461 C-24.4904558 149.50378497 -24.49067723 148.77734534 -24.49090537 148.02889238 C-24.49485352 136.25756321 -24.51230805 124.48629595 -24.5355939 112.7149907 C-24.55930637 100.63051167 -24.5717697 88.5460637 -24.57293582 76.46156102 C-24.57385263 69.67616964 -24.57960651 62.8908589 -24.59775543 56.10548973 C-24.61419861 49.72385265 -24.61640982 43.34236883 -24.60761642 36.96071815 C-24.60684405 34.61696081 -24.61121497 32.27319535 -24.62107468 29.92945862 C-24.63373571 26.73262958 -24.62794889 23.53634817 -24.61749268 20.33952332 C-24.62554908 19.40965534 -24.63360548 18.47978736 -24.64190602 17.52174157 C-24.602542 12.38431805 -24.12423891 8.81650564 -21.25 4.375 C-18.8125 2.125 -18.8125 2.125 -16.25 0.375 C-15.651875 -0.0375 -15.05375 -0.45 -14.4375 -0.875 C-9.34878983 -2.61970063 -4.81322619 -2.15517591 0 0 Z " fill="#F28E37" transform="translate(454.25,123.625)"/>
</svg>
