<?xml version="1.0" encoding="UTF-8"?>
<svg version="1.1" xmlns="http://www.w3.org/2000/svg" width="512" height="512">
<path d="M0 0 C1.29779268 -0.00573832 1.29779268 -0.00573832 2.6218034 -0.01159257 C5.51429874 -0.02189244 8.40659446 -0.01793613 11.29910278 -0.01396179 C13.37565291 -0.01830994 15.45220142 -0.02349344 17.52874756 -0.02944946 C23.16513137 -0.04283991 28.80144813 -0.04341805 34.43784475 -0.04088616 C39.14460894 -0.03981644 43.85135956 -0.04469989 48.55812085 -0.04949158 C59.66319806 -0.06058704 70.76824146 -0.06102402 81.87332153 -0.05497742 C93.32610215 -0.04893733 104.77875992 -0.0612495 116.23151958 -0.08254749 C126.06778556 -0.10016618 135.90401245 -0.1061644 145.74029362 -0.10290974 C151.6135569 -0.1010971 157.48673256 -0.10373122 163.35998154 -0.11762428 C168.8839721 -0.1302022 174.40777125 -0.12825872 179.93175888 -0.11521339 C181.95700139 -0.11284796 183.98225737 -0.11558109 186.00748444 -0.12383652 C188.77653275 -0.13430844 191.54493934 -0.12619963 194.31396484 -0.11352539 C195.11145043 -0.12089968 195.90893602 -0.12827396 196.73058784 -0.13587171 C202.46405075 -0.08083241 208.28652046 0.69513079 212.81484497 4.57100219 C217.34222385 9.63081593 218.53310083 14.91363999 218.53844166 21.53642082 C218.54427385 22.78352235 218.55010605 24.03062387 218.55611497 25.31551635 C218.55248212 26.69152048 218.54865777 28.0675241 218.54466248 29.44352722 C218.54768387 30.91143492 218.55157329 32.37934104 218.55625504 33.84724438 C218.5665454 37.8772308 218.56435058 41.90712836 218.56007445 45.93712211 C218.55760911 50.28486833 218.56661901 54.63259305 218.57411194 58.98033142 C218.58686638 67.49665851 218.58865169 76.01295408 218.58631168 84.52928911 C218.58452916 91.45127836 218.58627673 98.37325803 218.59053612 105.29524612 C218.59113131 106.280152 218.5917265 107.26505788 218.59233972 108.27980939 C218.59355146 110.28060634 218.5947656 112.28140329 218.5959821 114.28220023 C218.60686054 133.04916829 218.60469372 151.81611839 218.59859725 170.58308746 C218.59342803 187.75241841 218.60468313 204.92169262 218.62369547 222.09101234 C218.64306659 239.71943975 218.65133113 257.3478403 218.64757222 274.97627842 C218.64565904 284.87370427 218.64815904 294.77108182 218.66228676 304.66849899 C218.67419228 313.0944284 218.67561476 321.52027979 218.66349659 329.94621025 C218.65760204 334.24490939 218.65652437 338.54346577 218.66849899 342.84215546 C218.67933787 346.77889256 218.67627831 350.71536738 218.66223731 354.65209211 C218.65958487 356.07465659 218.66197412 357.4972415 218.66997317 358.91978596 C218.75546981 375.26138639 218.75546981 375.26138639 213.97366029 380.77022064 C208.16110951 386.05375664 202.00881106 386.55645934 194.56793213 386.52139282 C193.70273701 386.52521837 192.83754188 386.52904392 191.94612873 386.53298539 C189.05363339 386.54328527 186.16133767 386.53932895 183.26882935 386.53535461 C181.19227922 386.53970276 179.1157307 386.54488626 177.03918457 386.55084229 C171.40280076 386.56423274 165.766484 386.56481087 160.13008738 386.56227899 C155.42332319 386.56120926 150.71657256 386.56609271 146.00981128 386.57088441 C134.90473407 386.58197986 123.79969067 386.58241684 112.6946106 386.57637024 C101.24182998 386.57033015 89.78917221 386.58264232 78.33641255 386.60394031 C68.50014657 386.621559 58.66391968 386.62755722 48.82763851 386.62430257 C42.95437523 386.62248992 37.08119957 386.62512404 31.20795059 386.63901711 C25.68396003 386.65159502 20.16016088 386.64965154 14.63617325 386.63660622 C12.61093074 386.63424079 10.58567476 386.63697391 8.56044769 386.64522934 C5.79139938 386.65570126 3.02299279 386.64759245 0.25396729 386.63491821 C-0.5435183 386.6422925 -1.34100389 386.64966678 -2.16265571 386.65726453 C-7.89611862 386.60222523 -13.71858833 385.82626204 -18.24691284 381.95039064 C-22.77429172 376.89057689 -23.9651687 371.60775284 -23.97050953 364.984972 C-23.97634172 363.73787048 -23.98217392 362.49076895 -23.98818284 361.20587647 C-23.98455 359.82987235 -23.98072564 358.45386872 -23.97673035 357.0778656 C-23.97975174 355.6099579 -23.98364116 354.14205178 -23.98832291 352.67414844 C-23.99861327 348.64416202 -23.99641845 344.61426446 -23.99214232 340.58427072 C-23.98967698 336.23652449 -23.99868689 331.88879977 -24.00617981 327.5410614 C-24.01893425 319.02473431 -24.02071957 310.50843874 -24.01837955 301.99210371 C-24.01659703 295.07011447 -24.0183446 288.1481348 -24.02260399 281.2261467 C-24.02319918 280.24124082 -24.02379437 279.25633494 -24.02440759 278.24158343 C-24.02561933 276.24078648 -24.02683347 274.23998954 -24.02804997 272.23919259 C-24.03892841 253.47222453 -24.03676159 234.70527444 -24.03066512 215.93830536 C-24.0254959 198.76897442 -24.036751 181.5997002 -24.05576334 164.43038048 C-24.07513446 146.80195307 -24.083399 129.17355252 -24.07964009 111.5451144 C-24.07772692 101.64768855 -24.08022691 91.750311 -24.09435463 81.85289383 C-24.10626015 73.42696442 -24.10768263 65.00111303 -24.09556446 56.57518257 C-24.08966991 52.27648343 -24.08859224 47.97792705 -24.10056686 43.67923737 C-24.11140574 39.74250026 -24.10834618 35.80602544 -24.09430518 31.86930071 C-24.09165274 30.44673623 -24.09404199 29.02415132 -24.10204104 27.60160686 C-24.18753768 11.26000643 -24.18753768 11.26000643 -19.40572816 5.75117218 C-13.59317738 0.46763618 -7.44087893 -0.03506652 0 0 Z M31.09646606 81.92085266 C20.7241539 95.31097117 18.09324108 109.14491224 17.97146606 125.69819641 C17.94246216 127.00852844 17.91345825 128.31886047 17.88357544 129.66889954 C17.87519653 130.93540344 17.86681763 132.20190735 17.85818481 133.50679016 C17.84360229 134.65848694 17.82901978 135.81018372 17.81399536 136.9967804 C18.54797282 142.0942062 21.35632791 145.89172625 25.34646606 149.07319641 C30.45340778 152.87623811 34.98556507 152.47575202 41.09646606 152.51069641 C41.98656372 152.53132141 42.87666138 152.55194641 43.79373169 152.57319641 C49.92657945 152.60956615 54.12967711 152.03185605 58.90603638 147.83564758 C63.32423332 143.28527667 64.45206671 138.97646845 65.34646606 132.82319641 C66.76869799 123.3943255 69.89481027 116.55952105 77.45584106 110.51069641 C86.12659075 104.58197867 96.95062151 104.04874311 107.07302856 105.72163391 C114.71598505 107.73293825 120.71215866 111.5367898 125.15896606 118.13569641 C129.38176379 125.68252072 130.08684976 132.78832141 128.28396606 141.26069641 C125.38949072 149.60783486 120.9334227 154.9612064 113.04568481 158.86225891 C109.2410835 160.43558649 105.57490499 160.83979988 101.47146606 161.19819641 C89.29867701 162.52789115 81.68566109 166.20238579 73.28396606 175.26069641 C68.16824152 181.86201778 66.04356027 188.21121427 65.99343872 196.60786438 C65.9867215 197.31765442 65.98000427 198.02744446 65.9730835 198.75874329 C65.9541857 201.09019596 65.95018362 203.42135955 65.94802856 205.75288391 C65.94159526 207.38424291 65.93486651 209.01560077 65.92785645 210.6469574 C65.91590449 214.06136244 65.91217351 217.47566647 65.9133606 220.89009094 C65.91356375 225.25010035 65.88625676 229.60945768 65.85181618 233.96931267 C65.82950275 237.33751867 65.8255244 240.70556877 65.82658005 244.07384109 C65.82423097 245.68050001 65.81544668 247.28716368 65.79991531 248.89374924 C65.67630833 262.17890707 65.67630833 262.17890707 72.24880981 273.50288391 C72.89978638 274.04171204 73.55076294 274.58054016 74.22146606 275.13569641 C75.19406372 275.96714172 75.19406372 275.96714172 76.18630981 276.81538391 C82.17326687 280.94047537 88.23331819 280.97677784 95.28396606 280.26069641 C101.92869521 278.48727208 106.45764565 273.81403171 110.28396606 268.26069641 C111.983609 264.63116526 112.54667136 261.73150273 112.60281372 257.73603821 C112.62268341 256.65529526 112.6425531 255.57455231 112.6630249 254.46105957 C112.67457611 253.30568192 112.68612732 252.15030426 112.69802856 250.95991516 C112.71739471 249.76840347 112.73676086 248.57689178 112.75671387 247.34927368 C112.81642503 243.54898709 112.86286188 239.74867007 112.90896606 235.94819641 C112.94715357 233.36940726 112.98620575 230.79063077 113.02615356 228.21186829 C113.12211976 221.8949234 113.20719223 215.57790213 113.28396606 209.26069641 C114.78419312 209.08002625 114.78419312 209.08002625 116.31472778 208.89570618 C117.656074 208.72730444 118.99738053 208.5585863 120.33865356 208.38960266 C121.64817993 208.22790588 122.9577063 208.06620911 124.30691528 207.89961243 C138.65095377 205.84181834 153.21876016 197.70262683 162.28396606 186.26069641 C168.25097301 178.07269373 172.79637746 170.19624376 175.28396606 160.26069641 C175.45831177 159.58152161 175.63265747 158.9023468 175.81228638 158.20259094 C176.48757933 153.99074823 176.4669543 149.82890718 176.48709106 145.56929016 C176.49279114 144.62819901 176.49849121 143.68710785 176.50436401 142.71749878 C176.51379529 140.72629411 176.52034054 138.73507397 176.52420044 136.74385071 C176.53385478 133.73290338 176.5648749 130.72265413 176.59646606 127.71186829 C176.71368365 106.71301867 172.26936577 90.41046827 157.12380981 75.07319641 C146.4527668 65.13614049 132.9577229 58.2150498 118.1333313 58.0995636 C117.13136215 58.08995605 116.12939301 58.08034851 115.09706116 58.07044983 C114.02307571 58.06619995 112.94909027 58.06195007 111.84255981 58.05757141 C110.7239003 58.05187134 109.60524078 58.04617126 108.4526825 58.04029846 C106.08484844 58.03086047 103.71700133 58.02431925 101.34915161 58.02046204 C97.75882445 58.01079698 94.16907988 57.97977806 90.57888794 57.94819641 C88.27094861 57.9416616 85.9630052 57.93641301 83.65505981 57.93257141 C82.59524399 57.92022461 81.53542816 57.90787781 80.4434967 57.89515686 C60.51672425 57.9535555 43.88245968 66.84059809 31.09646606 81.92085266 Z M67.94021606 304.69819641 C65.4091828 310.1423057 65.7051012 315.33268767 65.78396606 321.26069641 C65.76849731 322.42343079 65.75302856 323.58616516 65.73709106 324.78413391 C65.75878153 333.28253985 65.75878153 333.28253985 70.28396606 340.26069641 C75.79676634 345.56146591 82.08148051 344.85651662 89.28396606 344.76069641 C91.02806763 344.78389954 91.02806763 344.78389954 92.80740356 344.80757141 C101.3058095 344.78588094 101.3058095 344.78588094 108.28396606 340.26069641 C113.58473556 334.74789613 112.87978627 328.46318197 112.78396606 321.26069641 C112.79943481 320.09796204 112.81490356 318.93522766 112.83084106 317.73725891 C112.80915059 309.23885298 112.80915059 309.23885298 108.28396606 302.26069641 C102.77116579 296.95992691 96.48645162 297.6648762 89.28396606 297.76069641 C88.12123169 297.74522766 86.95849731 297.72975891 85.76052856 297.71382141 C77.69097684 297.750753 73.63535003 298.77525709 67.94021606 304.69819641 Z " fill="#F28E37" transform="translate(158.71603393554688,62.73930358886719)"/>
<path d="M0 0 C1.0047802 -0.00538554 2.0095604 -0.01077108 3.04478848 -0.01631981 C6.38001348 -0.03051963 9.71483709 -0.02351536 13.05007935 -0.01637268 C15.45422685 -0.02208042 17.85837165 -0.02904624 20.26251221 -0.03717041 C26.09611432 -0.05321656 31.92959258 -0.05521144 37.76321207 -0.04995751 C42.50874918 -0.04590278 47.25425457 -0.04737476 51.99979019 -0.05270576 C52.67728527 -0.05345419 53.35478035 -0.05420261 54.05280558 -0.05497371 C55.42949621 -0.05650532 56.80618683 -0.05804366 58.18287744 -0.05958868 C71.06994345 -0.07329124 83.95694863 -0.06789192 96.84401323 -0.05640347 C108.61013676 -0.04647413 120.37610297 -0.05941051 132.14220224 -0.08333766 C144.25071246 -0.10777384 156.35914955 -0.11732541 168.46768391 -0.11068493 C175.25486841 -0.10720263 182.04193201 -0.10935897 188.82909775 -0.12693596 C195.21338218 -0.14244409 201.59736709 -0.13840627 207.98163986 -0.11963081 C210.3176213 -0.11595565 212.65362512 -0.1190219 214.98958588 -0.1295166 C244.29999628 -0.25109225 244.29999628 -0.25109225 255.55838013 9.48143005 C265.55025585 19.68234084 265.87072579 32.9033208 265.81324768 46.4289093 C265.81742656 48.03781382 265.82290711 49.64671538 265.82956749 51.25561154 C265.84396813 55.65233386 265.83979429 60.04886787 265.83240068 64.44560027 C265.82765794 69.19691059 265.84018863 73.94818081 265.85041809 78.69947815 C265.86758978 87.99820279 265.86844948 97.2968598 265.86320519 106.59559618 C265.85915921 114.15577495 265.86061212 121.71593378 265.86595345 129.2761116 C265.86670187 130.3532587 265.86745029 131.4304058 265.86822139 132.54019371 C265.86975291 134.72861234 265.87129126 136.91703096 265.87283636 139.10544957 C265.88655551 159.61516563 265.88112782 180.12484351 265.86965115 200.63455869 C265.85971943 219.38450824 265.87265944 238.1343591 265.89658534 256.88429342 C265.92098677 276.15255615 265.93058163 295.42077293 265.92393261 314.68905079 C265.92044271 325.50039549 265.92265735 336.3116643 265.94018364 347.12299728 C265.95491864 356.3263841 265.95552404 365.52964158 265.93811273 374.73302589 C265.9296111 379.42531128 265.92743273 384.11736575 265.94276428 388.80963898 C265.95664626 393.11164765 265.95180339 397.41322834 265.93252505 401.71521248 C265.92877546 403.26490161 265.93165674 404.81462532 265.9421367 406.36428355 C266.02046416 418.841477 264.78972981 430.73655176 256.33181763 440.52049255 C247.72779713 448.94820115 236.51954475 450.8518966 224.85113525 450.77536011 C223.84635506 450.78074565 222.84157486 450.78613118 221.80634677 450.79167992 C218.47112178 450.80587974 215.13629816 450.79887546 211.80105591 450.79173279 C209.3969084 450.79744053 206.9927636 450.80440634 204.58862305 450.81253052 C198.75502093 450.82857666 192.92154267 450.83057155 187.08792318 450.82531761 C182.34238607 450.82126289 177.59688068 450.82273487 172.85134506 450.82806587 C171.83510244 450.82918851 171.83510244 450.82918851 170.79832967 450.83033382 C169.42163905 450.83186542 168.04494843 450.83340377 166.66825782 450.83494879 C153.7811918 450.84865135 140.89418663 450.84325203 128.00712202 450.83176357 C116.24099849 450.82183424 104.47503228 450.83477062 92.70893301 450.85869776 C80.60042279 450.88313395 68.49198571 450.89268552 56.38345134 450.88604504 C49.59626684 450.88256274 42.80920324 450.88471908 36.02203751 450.90229607 C29.63775307 450.9178042 23.25376816 450.91376637 16.86949539 450.89499092 C14.53351395 450.89131576 12.19751013 450.89438201 9.86154938 450.90487671 C-19.44886103 451.02645235 -19.44886103 451.02645235 -30.70724487 441.29393005 C-40.6991206 431.09301927 -41.01959053 417.87203931 -40.96211243 404.34645081 C-40.96629131 402.73754629 -40.97177185 401.12864472 -40.97843224 399.51974857 C-40.99283287 395.12302624 -40.98865904 390.72649223 -40.98126543 386.32975984 C-40.97652268 381.57844952 -40.98905337 376.8271793 -40.99928284 372.07588196 C-41.01645452 362.77715732 -41.01731423 353.4785003 -41.01206993 344.17976393 C-41.00802396 336.61958516 -41.00947687 329.05942633 -41.01481819 321.4992485 C-41.01556661 320.42210141 -41.01631504 319.34495431 -41.01708614 318.23516639 C-41.01861766 316.04674777 -41.02015601 313.85832915 -41.0217011 311.66991054 C-41.03542025 291.16019448 -41.02999257 270.6505166 -41.01851589 250.14080141 C-41.00858417 231.39085187 -41.02152419 212.64100101 -41.04545008 193.89106669 C-41.06985151 174.62280396 -41.07944638 155.35458718 -41.07279736 136.08630931 C-41.06930746 125.27496462 -41.0715221 114.46369581 -41.08904839 103.65236282 C-41.10378339 94.44897601 -41.10438878 85.24571853 -41.08697747 76.04233421 C-41.07847584 71.35004883 -41.07629747 66.65799436 -41.09162903 61.96572113 C-41.10551101 57.66371246 -41.10066813 53.36213176 -41.08138979 49.06014763 C-41.07764021 47.5104585 -41.08052149 45.96073479 -41.09100144 44.41107656 C-41.16932891 31.93388311 -39.93859456 20.03880834 -31.48068237 10.25486755 C-22.87666188 1.82715895 -11.6684095 -0.0765365 0 0 Z M-16.57443237 29.38768005 C-20.89263109 35.74681846 -22.69621979 40.8870576 -22.70865345 48.56789589 C-22.71311129 49.84461588 -22.71756914 51.12133586 -22.72216207 52.43674433 C-22.72207277 53.85655698 -22.72188292 55.27636963 -22.72160339 56.69618225 C-22.72490288 58.20218544 -22.72862862 59.70818775 -22.73274487 61.21418893 C-22.74276337 65.35882276 -22.74648142 69.50344209 -22.74913418 73.64808631 C-22.75303767 78.11587626 -22.76261597 82.58365475 -22.77134705 87.05143738 C-22.79111003 97.84412538 -22.80117739 108.63681432 -22.81007484 119.4295159 C-22.81445794 124.51181732 -22.81982469 129.5941177 -22.82506371 134.6764183 C-22.8420757 151.57077887 -22.85656999 168.46513879 -22.86381245 185.35950661 C-22.86572234 189.743735 -22.86764268 194.1279634 -22.86959839 198.51219177 C-22.87008213 199.60187167 -22.87056587 200.69155156 -22.87106427 201.81425206 C-22.87936503 219.46735831 -22.90470286 237.1203968 -22.93717907 254.77347346 C-22.97024859 272.89678862 -22.98826111 291.02006936 -22.99145669 309.14341486 C-22.99362186 319.3192969 -23.00237168 329.49508013 -23.02791786 339.67093277 C-23.04962337 348.3369423 -23.05767599 357.00282902 -23.04795108 365.66886266 C-23.04340598 370.08935699 -23.04530481 374.50959793 -23.06471252 378.93005753 C-23.08234201 382.9805247 -23.08134838 387.03055359 -23.06581523 391.08102541 C-23.06343883 392.54272142 -23.06776448 394.00444776 -23.07964388 395.46609743 C-23.16180157 406.24659175 -22.00595152 415.61765179 -14.41818237 423.78611755 C-6.62855525 430.55253095 0.17469308 432.53705225 10.26727295 432.53485107 C11.62163895 432.54036611 11.62163895 432.54036611 13.00336587 432.54599255 C16.03554433 432.55702489 19.06768851 432.56087249 22.09988403 432.56468201 C24.27141427 432.57094702 26.44294344 432.57759386 28.61447144 432.58459473 C35.75201674 432.60563385 42.88956226 432.61599731 50.02713013 432.6259613 C52.48478583 432.63000898 54.94244142 432.63412591 57.40009689 432.63831139 C68.94700114 432.6573631 80.493899 432.67159391 92.04081595 432.67992336 C105.36634575 432.68969466 118.69165937 432.71601154 132.01713431 432.75642425 C142.31877363 432.78659343 152.62036534 432.80139302 162.92204797 432.80470437 C169.07378471 432.80705402 175.22534392 432.81600371 181.37703323 432.84116554 C187.16695659 432.86446492 192.95658578 432.86867179 198.74654388 432.85840416 C200.86770736 432.85790914 202.9888854 432.8642195 205.11000443 432.87796021 C223.36117848 433.12839132 223.36117848 433.12839132 238.82400513 424.23143005 C244.69930664 417.46766832 247.54541137 411.08899765 247.5597887 402.20746422 C247.56647547 400.29238424 247.56647547 400.29238424 247.57329732 398.33861578 C247.57320803 396.91880313 247.57301818 395.49899048 247.57273865 394.07917786 C247.57603813 392.57317466 247.57976388 391.06717236 247.58388013 389.56117117 C247.59389862 385.41653735 247.59761668 381.27191801 247.60026944 377.1272738 C247.60417292 372.65948385 247.61375122 368.19170536 247.6224823 363.72392273 C247.64224528 352.93123473 247.65231264 342.13854578 247.66121009 331.34584421 C247.6655932 326.26354278 247.67095994 321.1812424 247.67619896 316.0989418 C247.69321095 299.20458124 247.70770524 282.31022132 247.7149477 265.4158535 C247.7168576 261.0316251 247.71877793 256.64739671 247.72073364 252.26316833 C247.72121738 251.17348844 247.72170112 250.08380854 247.72219952 248.96110804 C247.73050028 231.3080018 247.75583812 213.65496331 247.78831432 196.00188665 C247.82138385 177.87857148 247.83939636 159.75529075 247.84259194 141.63194525 C247.84475712 131.45606321 247.85350693 121.28027998 247.87905312 111.10442734 C247.90075862 102.43841781 247.90881125 93.77253108 247.89908633 85.10649745 C247.89454123 80.68600312 247.89644006 76.26576217 247.91584778 71.84530258 C247.93347726 67.79483541 247.93248364 63.74480652 247.91695049 59.6943347 C247.91457408 58.23263869 247.91889973 56.77091235 247.93077914 55.30926268 C248.01293682 44.52876836 246.85708677 35.15770832 239.26931763 26.98924255 C231.4796905 20.22282916 224.67644217 18.23830786 214.5838623 18.24050903 C213.68095164 18.23683235 212.77804097 18.23315566 211.84776938 18.22936755 C208.81559092 18.21833521 205.78344674 18.21448762 202.75125122 18.2106781 C200.57972098 18.20441309 198.40819181 18.19776625 196.23666382 18.19076538 C189.09911851 18.16972626 181.961573 18.1593628 174.82400513 18.1493988 C172.36634942 18.14535113 169.90869383 18.1412342 167.45103836 18.13704872 C155.90413411 18.11799701 144.35723625 18.1037662 132.8103193 18.09543675 C119.4847895 18.08566545 106.15947588 18.05934857 92.83400095 18.01893586 C82.53236163 17.98876668 72.23076992 17.97396708 61.92908728 17.97065574 C55.77735055 17.96830609 49.62579133 17.9593564 43.47410202 17.93419456 C37.68417867 17.91089518 31.89454947 17.90668832 26.10459137 17.91695595 C23.9834279 17.91745097 21.86224985 17.9111406 19.74113083 17.8973999 C5.49858137 17.81032343 -6.50299408 17.92862137 -16.57443237 29.38768005 Z " fill="#F28E37" transform="translate(143.57443237304688,30.612319946289063)"/>
<path d="M0 0 C1.211185 -0.0049926 1.211185 -0.0049926 2.44683838 -0.01008606 C4.1478214 -0.01512371 5.84881421 -0.01749537 7.54980469 -0.01733398 C10.11931103 -0.01951317 12.6883823 -0.03768258 15.2578125 -0.05664062 C33.43772374 -0.11982428 48.06090733 2.16546314 61.5546875 15.26953125 C73.79323251 28.24147221 75.92631901 43.84872495 75.765625 61.16796875 C75.77722656 62.41835937 75.78882813 63.66875 75.80078125 64.95703125 C75.74911446 81.59373625 72.46222442 95.62271903 60.8359375 107.84375 C50.31703358 117.84174973 39.05661287 121.27276808 24.8359375 122.48046875 C19.9190122 123.46162391 16.67801605 125.36952066 13.74328613 129.46925354 C12.24796393 132.45259407 12.01318101 134.28270465 12.00585938 137.59741211 C11.99574829 138.65878891 11.98563721 139.72016571 11.97521973 140.81370544 C11.97824097 141.95026077 11.98126221 143.0868161 11.984375 144.2578125 C11.96812073 146.02373497 11.96812073 146.02373497 11.95153809 147.82533264 C11.91727933 151.58543403 11.90168381 155.34523181 11.890625 159.10546875 C11.87605571 164.05237534 11.84236955 168.99860436 11.796875 173.9453125 C11.79989624 175.0798436 11.80291748 176.21437469 11.80603027 177.38328552 C11.70934796 187.5623252 11.70934796 187.5623252 8.390625 192.16796875 C4.338252 194.07946545 2.36545532 194.48065017 -1.921875 193.10546875 C-5.03407529 190.86178947 -5.50319179 189.77220238 -6.609375 186.16796875 C-6.87007141 183.23553467 -6.87007141 183.23553467 -6.8840332 179.95996094 C-6.89833122 178.1121402 -6.89833122 178.1121402 -6.91291809 176.22698975 C-6.91265655 174.88960746 -6.91171898 173.55222515 -6.91015625 172.21484375 C-6.91404803 170.83107374 -6.91838369 169.44730491 -6.92314148 168.0635376 C-6.93059166 165.16520312 -6.93032228 162.26699046 -6.92504883 159.36865234 C-6.91927159 155.67578245 -6.93614812 151.98341697 -6.9593935 148.29063034 C-6.97421558 145.43193706 -6.97499085 142.57336267 -6.97188377 139.71463776 C-6.97263916 137.69798061 -6.98645082 135.68134178 -7.00056458 133.66473389 C-6.95901341 125.36296578 -6.29759682 118.48832525 -1.859375 111.35546875 C3.9053569 105.7508683 9.36447198 104.58163187 17.078125 103.79296875 C28.867347 102.29080063 39.43783916 98.43766751 47.390625 89.16796875 C55.91088794 76.78406182 58.10703347 64.91756489 55.9609375 50.2265625 C53.05214131 39.04026605 45.98101051 30.36663255 36.390625 24.16796875 C27.94777384 19.62993625 20.82147743 18.93821151 11.328125 18.85546875 C9.70487305 18.81196289 9.70487305 18.81196289 8.04882812 18.76757812 C-4.34738802 18.67090697 -14.66440229 22.7379036 -23.76953125 31.16796875 C-31.95106662 39.73181886 -34.99512876 48.51822969 -36.0546875 60.19921875 C-36.609375 63.16796875 -36.609375 63.16796875 -37.7890625 65.05078125 C-40.4277682 66.67024441 -42.53693601 66.56556021 -45.609375 66.54296875 C-46.66125 66.55070312 -47.713125 66.5584375 -48.796875 66.56640625 C-51.609375 66.16796875 -51.609375 66.16796875 -53.4609375 65.1328125 C-55.27588176 62.02765276 -55.05099194 58.84920007 -54.984375 55.35546875 C-54.97494873 54.59935303 -54.96552246 53.8432373 -54.95581055 53.06420898 C-54.52028369 36.53327519 -49.64319835 23.60586794 -37.609375 12.16796875 C-26.67374155 2.79200762 -14.10775108 0.02064175 0 0 Z " fill="#F18E37" transform="translate(245.609375,134.83203125)"/>
<path d="M0 0 C1.12535156 0.00580078 1.12535156 0.00580078 2.2734375 0.01171875 C3.02367187 0.00785156 3.77390625 0.00398438 4.546875 0 C10.14682697 0.01010822 10.14682697 0.01010822 11.2734375 1.13671875 C11.37324964 3.81403255 11.41223625 6.4597605 11.3984375 9.13671875 C11.40423828 10.26207031 11.40423828 10.26207031 11.41015625 11.41015625 C11.40004803 17.01010822 11.40004803 17.01010822 10.2734375 18.13671875 C7.5961237 18.23653089 4.95039575 18.2755175 2.2734375 18.26171875 C1.14808594 18.26751953 1.14808594 18.26751953 0 18.2734375 C-5.59995197 18.26332928 -5.59995197 18.26332928 -6.7265625 17.13671875 C-6.82637464 14.45940495 -6.86536125 11.813677 -6.8515625 9.13671875 C-6.85542969 8.38648438 -6.85929688 7.63625 -6.86328125 6.86328125 C-6.8512779 0.21342273 -6.64985852 0.01200335 0 0 Z " fill="#F38F38" transform="translate(245.7265625,374.86328125)"/>
</svg>
