<?xml version="1.0" encoding="UTF-8"?>
<svg version="1.1" xmlns="http://www.w3.org/2000/svg" width="512" height="512">
<path d="M0 0 C0.76366204 -0.00523668 1.52732407 -0.01047336 2.31412739 -0.01586872 C4.86327534 -0.03082429 7.41222177 -0.0315729 9.96141052 -0.03224182 C11.79339942 -0.03986652 13.62538513 -0.04829456 15.45736694 -0.0574646 C20.42880655 -0.07939122 25.40018465 -0.08820654 30.37166715 -0.09329104 C33.48179363 -0.09693808 36.59190409 -0.10318009 39.70202446 -0.11029243 C50.56453532 -0.13478469 61.42699847 -0.14783746 72.28953552 -0.15138245 C82.39378086 -0.15501313 92.4977216 -0.18487564 102.60187393 -0.22678703 C111.29173329 -0.26156031 119.9814921 -0.27693214 128.67142051 -0.27762848 C133.85467841 -0.27841917 139.03762621 -0.28706131 144.22081184 -0.31562614 C149.10226095 -0.3419261 153.98314555 -0.34394576 158.86463356 -0.3279705 C160.64751676 -0.32616522 162.43043331 -0.33276274 164.21324539 -0.34878922 C179.51416518 -0.47785113 192.3841308 2.30779488 204.11155701 12.98899841 C205.52039439 14.38145396 206.88087492 15.8226028 208.22874451 17.27415466 C211.24480598 15.92417082 213.2636779 14.40024993 215.60374451 12.08665466 C224.04928 4.48567272 234.45629181 0.1281679 245.75949097 0.12025452 C246.90242075 0.11368114 246.90242075 0.11368114 248.06844002 0.10697496 C250.62374913 0.09361199 253.17902377 0.08741363 255.73435974 0.08128357 C257.56605179 0.07338038 259.39774228 0.06511129 261.22943115 0.0565033 C267.24871843 0.03029952 273.26801259 0.01497328 279.28733826 0.00071716 C281.36231554 -0.00464395 283.43729278 -0.01002146 285.51226997 -0.01541519 C294.14823396 -0.03704507 302.7841961 -0.05577891 311.42018032 -0.06703758 C323.77865721 -0.08325695 336.13681872 -0.11638471 348.49517673 -0.17343843 C357.19347774 -0.21221876 365.89169469 -0.23168008 374.59007984 -0.23695815 C379.7800905 -0.24060165 384.96976464 -0.25251559 390.15968132 -0.28506088 C395.04929114 -0.31528258 399.93836334 -0.32140331 404.8280468 -0.30967712 C406.61416129 -0.30945754 408.40030174 -0.31766642 410.18632889 -0.33533096 C426.36448102 -0.48651456 439.23450325 2.99506484 451.41233826 14.30149841 C459.90756033 23.18213699 465.54521229 34.69087085 465.50289917 47.04541016 C465.50813585 47.80907219 465.51337253 48.57273423 465.51876789 49.35953754 C465.53372346 51.9086855 465.53447207 54.45763193 465.53514099 57.00682068 C465.54276569 58.83880958 465.55119373 60.67079528 465.56036377 62.5027771 C465.58229039 67.47421671 465.59110571 72.4455948 465.59619021 77.4170773 C465.59983725 80.52720379 465.60607926 83.63731425 465.6131916 86.74743462 C465.63768386 97.60994547 465.65073663 108.47240863 465.65428162 119.33494568 C465.6579123 129.43919102 465.68777481 139.54313176 465.7296862 149.64728409 C465.76445948 158.33714345 465.77983131 167.02690225 465.78052765 175.71683067 C465.78131834 180.90008857 465.78996047 186.08303636 465.81852531 191.266222 C465.84482527 196.1476711 465.84684493 201.02855571 465.83086967 205.91004372 C465.82906439 207.69292692 465.83566191 209.47584346 465.85168839 211.25865555 C465.98594702 227.17567228 462.6369743 239.85200537 451.67015076 252.00071716 C450.55856018 253.12805265 449.40021685 254.20917981 448.22874451 255.27415466 C449.59163799 258.32062245 451.15898095 260.3916948 453.47874451 262.77415466 C460.96309716 271.11787975 465.54121785 281.85716314 465.50289917 293.04541016 C465.50813585 293.80907219 465.51337253 294.57273423 465.51876789 295.35953754 C465.53372346 297.9086855 465.53447207 300.45763193 465.53514099 303.00682068 C465.54276569 304.83880958 465.55119373 306.67079528 465.56036377 308.5027771 C465.58229039 313.47421671 465.59110571 318.4455948 465.59619021 323.4170773 C465.59983725 326.52720379 465.60607926 329.63731425 465.6131916 332.74743462 C465.63768386 343.60994547 465.65073663 354.47240863 465.65428162 365.33494568 C465.6579123 375.43919102 465.68777481 385.54313176 465.7296862 395.64728409 C465.76445948 404.33714345 465.77983131 413.02690225 465.78052765 421.71683067 C465.78131834 426.90008857 465.78996047 432.08303636 465.81852531 437.266222 C465.84482527 442.1476711 465.84684493 447.02855571 465.83086967 451.91004372 C465.82906439 453.69292692 465.83566191 455.47584346 465.85168839 457.25865555 C465.98802543 473.42207721 462.49650042 486.29212084 451.20140076 498.45774841 C442.32076218 506.95297049 430.81202832 512.59062245 418.45748901 512.54830933 C417.69382698 512.553546 416.93016494 512.55878268 416.14336163 512.56417805 C413.59421367 512.57913361 411.04526724 512.57988223 408.49607849 512.58055115 C406.66408959 512.58817585 404.83210389 512.59660388 403.00012207 512.60577393 C398.02868246 512.62770055 393.05730437 512.63651587 388.08582187 512.64160037 C384.97569538 512.64524741 381.86558492 512.65148941 378.75546455 512.65860176 C367.8929537 512.68309401 357.03049054 512.69614678 346.16795349 512.69969177 C336.06370815 512.70332245 325.95976741 512.73318497 315.85561508 512.77509636 C307.16575572 512.80986964 298.47599692 512.82524146 289.7860685 512.82593781 C284.6028106 512.8267285 279.41986281 512.83537063 274.23667717 512.86393547 C269.35522807 512.89023542 264.47434346 512.89225509 259.59285545 512.87627983 C257.80997225 512.87447454 256.0270557 512.88107207 254.24424362 512.89709854 C238.32722689 513.03135718 225.6508938 509.68238445 213.50218201 498.71556091 C212.37484652 497.60397034 211.29371936 496.44562701 210.22874451 495.27415466 C207.18227672 496.63704815 205.11120437 498.20439111 202.72874451 500.52415466 C194.38501942 508.00850732 183.64573603 512.58662801 172.45748901 512.54830933 C171.69382698 512.553546 170.93016494 512.55878268 170.14336163 512.56417805 C167.59421367 512.57913361 165.04526724 512.57988223 162.49607849 512.58055115 C160.66408959 512.58817585 158.83210389 512.59660388 157.00012207 512.60577393 C152.02868246 512.62770055 147.05730437 512.63651587 142.08582187 512.64160037 C138.97569538 512.64524741 135.86558492 512.65148941 132.75546455 512.65860176 C121.8929537 512.68309401 111.03049054 512.69614678 100.16795349 512.69969177 C90.06370815 512.70332245 79.95976741 512.73318497 69.85561508 512.77509636 C61.16575572 512.80986964 52.47599692 512.82524146 43.7860685 512.82593781 C38.6028106 512.8267285 33.41986281 512.83537063 28.23667717 512.86393547 C23.35522807 512.89023542 18.47434346 512.89225509 13.59285545 512.87627983 C11.80997225 512.87447454 10.0270557 512.88107207 8.24424362 512.89709854 C-7.91917804 513.03343558 -20.78922167 509.54191058 -32.95484924 498.24681091 C-41.45007132 489.36617234 -47.08772328 477.85743848 -47.04541016 465.50289917 C-47.05064683 464.73923713 -47.05588351 463.9755751 -47.06127888 463.18877178 C-47.07623444 460.63962383 -47.07698306 458.0906774 -47.07765198 455.54148865 C-47.08527668 453.70949975 -47.09370471 451.87751404 -47.10287476 450.04553223 C-47.12480138 445.07409262 -47.1336167 440.10271452 -47.1387012 435.13123202 C-47.14234824 432.02110554 -47.14859024 428.91099508 -47.15570259 425.80087471 C-47.18019485 414.93836385 -47.19324761 404.0759007 -47.1967926 393.21336365 C-47.20042328 383.10911831 -47.2302858 373.00517757 -47.27219719 362.90102524 C-47.30697047 354.21116588 -47.32234229 345.52140707 -47.32303864 336.83147866 C-47.32382933 331.64822076 -47.33247146 326.46527296 -47.3610363 321.28208733 C-47.38733625 316.40063822 -47.38935592 311.51975362 -47.37338066 306.63826561 C-47.37157537 304.85538241 -47.3781729 303.07246586 -47.39419937 301.28965378 C-47.52326128 285.98873399 -44.73761528 273.11876837 -34.05641174 261.39134216 C-32.66395619 259.98250478 -31.22280735 258.62202425 -29.77125549 257.27415466 C-31.12123934 254.25809319 -32.64516023 252.23922127 -34.95875549 249.89915466 C-42.55973744 241.45361917 -46.91724226 231.04660736 -46.92515564 219.7434082 C-46.92953789 218.98145502 -46.93392015 218.21950183 -46.9384352 217.43445915 C-46.95179817 214.87915004 -46.95799653 212.3238754 -46.96412659 209.76853943 C-46.97202978 207.93684738 -46.98029886 206.10515689 -46.98890686 204.27346802 C-47.01511063 198.25418074 -47.03043688 192.23488658 -47.04469299 186.21556091 C-47.05005411 184.14058363 -47.05543162 182.06560639 -47.06082535 179.9906292 C-47.08245522 171.35466521 -47.10118906 162.71870307 -47.11244774 154.08271885 C-47.1286671 141.72424196 -47.16179486 129.36608045 -47.21884859 117.00772244 C-47.25762892 108.30942143 -47.27709023 99.61120448 -47.2823683 90.91281933 C-47.2860118 85.72280867 -47.29792574 80.53313453 -47.33047104 75.34321785 C-47.36069273 70.45360803 -47.36681347 65.56453583 -47.35508728 60.67485237 C-47.35486769 58.88873788 -47.36307658 57.10259743 -47.38074112 55.31657028 C-47.53192472 39.13841815 -44.05034532 26.26839592 -32.74391174 14.09056091 C-23.86327317 5.59533884 -12.35453931 -0.04231312 0 0 Z M-20.77125549 32.27415466 C-24.53605035 38.19336969 -25.89558719 43.39100334 -25.91842651 50.40785217 C-25.9221032 51.13910478 -25.92577989 51.87035739 -25.92956799 52.62376916 C-25.94060559 55.08096853 -25.94444883 57.53812562 -25.94825745 59.99534607 C-25.95452214 61.75456375 -25.96116894 63.5137801 -25.96817017 65.272995 C-25.98921558 71.05722634 -25.99957427 76.84145795 -26.00953674 82.62571716 C-26.01358438 84.61751189 -26.0177013 86.60930648 -26.02188683 88.60110092 C-26.04094101 97.96047035 -26.05517052 107.31983188 -26.0634988 116.67921698 C-26.07326689 127.47820627 -26.09957432 138.27699035 -26.13999969 149.07590735 C-26.17018023 157.42508575 -26.18496959 165.7742054 -26.18827981 174.12343729 C-26.19062845 179.10872205 -26.19956451 184.09378765 -26.22474098 189.07901382 C-26.24806001 193.77238446 -26.25223953 198.46539224 -26.2419796 203.15880585 C-26.24148503 204.87725152 -26.24778217 206.59571528 -26.26153564 208.31410599 C-26.34802326 219.76496274 -25.58658118 228.89095302 -17.55250549 237.70384216 C-11.3238629 243.19488234 -4.81980285 245.39469308 3.36244202 245.42132568 C4.45932093 245.42684072 4.45932093 245.42684072 5.57835901 245.43246716 C8.03555838 245.44350476 10.49271546 245.447348 12.94993591 245.45115662 C14.70915359 245.45742131 16.46836994 245.46406811 18.22758484 245.47106934 C24.01181618 245.49211475 29.7960478 245.50247344 35.58030701 245.51243591 C37.57210173 245.51648355 39.56389632 245.52060047 41.55569077 245.524786 C50.91506019 245.54384018 60.27442173 245.55806969 69.63380682 245.56639796 C80.43279612 245.57616606 91.2315802 245.60247349 102.03049719 245.64289886 C110.37967559 245.6730794 118.72879525 245.68786876 127.07802713 245.69117898 C132.06331189 245.69352762 137.04837749 245.70246367 142.03360367 245.72764015 C146.72697431 245.75095918 151.41998208 245.7551387 156.11339569 245.74487877 C157.83184136 245.7443842 159.55030513 245.75068134 161.26869583 245.76443481 C172.71955259 245.85092243 181.84554286 245.08948035 190.65843201 237.05540466 C196.14947218 230.82676207 198.34928292 224.32270202 198.37591553 216.14045715 C198.37959222 215.40920455 198.3832689 214.67795194 198.38705701 213.92454016 C198.3980946 211.46734079 198.40193784 209.01018371 198.40574646 206.55296326 C198.41201115 204.79374558 198.41865796 203.03452923 198.42565918 201.27531433 C198.4467046 195.49108299 198.45706328 189.70685137 198.46702576 183.92259216 C198.47107339 181.93079744 198.47519032 179.93900285 198.47937584 177.9472084 C198.49843002 168.58783898 198.51265954 159.22847744 198.52098781 149.86909235 C198.5307559 139.07010305 198.55706334 128.27131897 198.5974887 117.47240198 C198.62766924 109.12322358 198.6424586 100.77410392 198.64576882 92.42487204 C198.64811746 87.43958728 198.65705352 82.45452168 198.68223 77.4692955 C198.70554902 72.77592486 198.70972854 68.08291709 198.69946861 63.38950348 C198.69897404 61.67105781 198.70527119 59.95259404 198.71902466 58.23420334 C198.8069087 46.59846103 197.99016512 37.66500568 189.79905701 28.77415466 C183.5471859 22.80221809 177.20734308 21.02840512 168.73428345 21.00672913 C168.00046757 21.00219801 167.26665168 20.9976669 166.51059896 20.99299848 C164.06266012 20.98038342 161.61494459 20.98197296 159.16697693 20.98362732 C157.40731522 20.97764025 155.64765613 20.97083429 153.88800049 20.96327209 C149.11516235 20.94562284 144.34239596 20.94091716 139.56952834 20.93964052 C136.58540017 20.93821773 133.60129017 20.93394569 130.61716652 20.92864609 C120.20016448 20.91014919 109.78321359 20.90197503 99.36619568 20.90354919 C89.66635283 20.90475042 79.96673255 20.88365089 70.26694602 20.85206187 C61.93043702 20.8258831 53.59400065 20.81518258 45.25745088 20.81646001 C40.28228414 20.81696919 35.30731524 20.81131073 30.33218956 20.79010391 C25.65107338 20.77069465 20.97034323 20.77061542 16.28921318 20.78513718 C14.57560917 20.78722305 12.86198083 20.78253758 11.14841843 20.77041626 C-1.81398683 20.68469514 -11.7367561 22.1358929 -20.77125549 32.27415466 Z M225.22874451 32.27415466 C221.46394965 38.19336969 220.10441281 43.39100334 220.08157349 50.40785217 C220.0778968 51.13910478 220.07422011 51.87035739 220.07043201 52.62376916 C220.05939441 55.08096853 220.05555117 57.53812562 220.05174255 59.99534607 C220.04547786 61.75456375 220.03883106 63.5137801 220.03182983 65.272995 C220.01078442 71.05722634 220.00042573 76.84145795 219.99046326 82.62571716 C219.98641562 84.61751189 219.9822987 86.60930648 219.97811317 88.60110092 C219.95905899 97.96047035 219.94482948 107.31983188 219.9365012 116.67921698 C219.92673311 127.47820627 219.90042568 138.27699035 219.86000031 149.07590735 C219.82981977 157.42508575 219.81503041 165.7742054 219.81172019 174.12343729 C219.80937155 179.10872205 219.80043549 184.09378765 219.77525902 189.07901382 C219.75193999 193.77238446 219.74776047 198.46539224 219.7580204 203.15880585 C219.75851497 204.87725152 219.75221783 206.59571528 219.73846436 208.31410599 C219.65197674 219.76496274 220.41341882 228.89095302 228.44749451 237.70384216 C234.6761371 243.19488234 241.18019715 245.39469308 249.36244202 245.42132568 C250.45932093 245.42684072 250.45932093 245.42684072 251.57835901 245.43246716 C254.03555838 245.44350476 256.49271546 245.447348 258.94993591 245.45115662 C260.70915359 245.45742131 262.46836994 245.46406811 264.22758484 245.47106934 C270.01181618 245.49211475 275.7960478 245.50247344 281.58030701 245.51243591 C283.57210173 245.51648355 285.56389632 245.52060047 287.55569077 245.524786 C296.91506019 245.54384018 306.27442173 245.55806969 315.63380682 245.56639796 C326.43279612 245.57616606 337.2315802 245.60247349 348.03049719 245.64289886 C356.37967559 245.6730794 364.72879525 245.68786876 373.07802713 245.69117898 C378.06331189 245.69352762 383.04837749 245.70246367 388.03360367 245.72764015 C392.72697431 245.75095918 397.41998208 245.7551387 402.11339569 245.74487877 C403.83184136 245.7443842 405.55030513 245.75068134 407.26869583 245.76443481 C418.71955259 245.85092243 427.84554286 245.08948035 436.65843201 237.05540466 C442.14947218 230.82676207 444.34928292 224.32270202 444.37591553 216.14045715 C444.37959222 215.40920455 444.3832689 214.67795194 444.38705701 213.92454016 C444.3980946 211.46734079 444.40193784 209.01018371 444.40574646 206.55296326 C444.41201115 204.79374558 444.41865796 203.03452923 444.42565918 201.27531433 C444.4467046 195.49108299 444.45706328 189.70685137 444.46702576 183.92259216 C444.47107339 181.93079744 444.47519032 179.93900285 444.47937584 177.9472084 C444.49843002 168.58783898 444.51265954 159.22847744 444.52098781 149.86909235 C444.5307559 139.07010305 444.55706334 128.27131897 444.5974887 117.47240198 C444.62766924 109.12322358 444.6424586 100.77410392 444.64576882 92.42487204 C444.64811746 87.43958728 444.65705352 82.45452168 444.68223 77.4692955 C444.70554902 72.77592486 444.70972854 68.08291709 444.69946861 63.38950348 C444.69897404 61.67105781 444.70527119 59.95259404 444.71902466 58.23420334 C444.8069087 46.59846103 443.99016512 37.66500568 435.79905701 28.77415466 C429.5471859 22.80221809 423.20734308 21.02840512 414.73428345 21.00672913 C414.00046757 21.00219801 413.26665168 20.9976669 412.51059896 20.99299848 C410.06266012 20.98038342 407.61494459 20.98197296 405.16697693 20.98362732 C403.40731522 20.97764025 401.64765613 20.97083429 399.88800049 20.96327209 C395.11516235 20.94562284 390.34239596 20.94091716 385.56952834 20.93964052 C382.58540017 20.93821773 379.60129017 20.93394569 376.61716652 20.92864609 C366.20016448 20.91014919 355.78321359 20.90197503 345.36619568 20.90354919 C335.66635283 20.90475042 325.96673255 20.88365089 316.26694602 20.85206187 C307.93043702 20.8258831 299.59400065 20.81518258 291.25745088 20.81646001 C286.28228414 20.81696919 281.30731524 20.81131073 276.33218956 20.79010391 C271.65107338 20.77069465 266.97034323 20.77061542 262.28921318 20.78513718 C260.57560917 20.78722305 258.86198083 20.78253758 257.14841843 20.77041626 C244.18601317 20.68469514 234.2632439 22.1358929 225.22874451 32.27415466 Z M206.50218201 249.80540466 C205.56245544 250.77993591 205.56245544 250.77993591 204.60374451 251.77415466 C203.97210388 252.42384216 203.34046326 253.07352966 202.68968201 253.74290466 C202.20757263 254.24821716 201.72546326 254.75352966 201.22874451 255.27415466 C202.95029239 259.03903508 205.22108564 261.42479364 208.22874451 264.27415466 C212.04558677 262.71914485 214.42070183 260.23819971 217.22874451 257.27415466 C215.6727068 253.45478938 213.27269519 251.01371028 210.22874451 248.27415466 C208.09350358 248.05298035 208.09350358 248.05298035 206.50218201 249.80540466 Z M-20.77125549 278.27415466 C-24.53605035 284.19336969 -25.89558719 289.39100334 -25.91842651 296.40785217 C-25.9221032 297.13910478 -25.92577989 297.87035739 -25.92956799 298.62376916 C-25.94060559 301.08096853 -25.94444883 303.53812562 -25.94825745 305.99534607 C-25.95452214 307.75456375 -25.96116894 309.5137801 -25.96817017 311.272995 C-25.98921558 317.05722634 -25.99957427 322.84145795 -26.00953674 328.62571716 C-26.01358438 330.61751189 -26.0177013 332.60930648 -26.02188683 334.60110092 C-26.04094101 343.96047035 -26.05517052 353.31983188 -26.0634988 362.67921698 C-26.07326689 373.47820627 -26.09957432 384.27699035 -26.13999969 395.07590735 C-26.17018023 403.42508575 -26.18496959 411.7742054 -26.18827981 420.12343729 C-26.19062845 425.10872205 -26.19956451 430.09378765 -26.22474098 435.07901382 C-26.24806001 439.77238446 -26.25223953 444.46539224 -26.2419796 449.15880585 C-26.24148503 450.87725152 -26.24778217 452.59571528 -26.26153564 454.31410599 C-26.34802326 465.76496274 -25.58658118 474.89095302 -17.55250549 483.70384216 C-11.3238629 489.19488234 -4.81980285 491.39469308 3.36244202 491.42132568 C4.45932093 491.42684072 4.45932093 491.42684072 5.57835901 491.43246716 C8.03555838 491.44350476 10.49271546 491.447348 12.94993591 491.45115662 C14.70915359 491.45742131 16.46836994 491.46406811 18.22758484 491.47106934 C24.01181618 491.49211475 29.7960478 491.50247344 35.58030701 491.51243591 C37.57210173 491.51648355 39.56389632 491.52060047 41.55569077 491.524786 C50.91506019 491.54384018 60.27442173 491.55806969 69.63380682 491.56639796 C80.43279612 491.57616606 91.2315802 491.60247349 102.03049719 491.64289886 C110.37967559 491.6730794 118.72879525 491.68786876 127.07802713 491.69117898 C132.06331189 491.69352762 137.04837749 491.70246367 142.03360367 491.72764015 C146.72697431 491.75095918 151.41998208 491.7551387 156.11339569 491.74487877 C157.83184136 491.7443842 159.55030513 491.75068134 161.26869583 491.76443481 C172.71955259 491.85092243 181.84554286 491.08948035 190.65843201 483.05540466 C196.14947218 476.82676207 198.34928292 470.32270202 198.37591553 462.14045715 C198.37959222 461.40920455 198.3832689 460.67795194 198.38705701 459.92454016 C198.3980946 457.46734079 198.40193784 455.01018371 198.40574646 452.55296326 C198.41201115 450.79374558 198.41865796 449.03452923 198.42565918 447.27531433 C198.4467046 441.49108299 198.45706328 435.70685137 198.46702576 429.92259216 C198.47107339 427.93079744 198.47519032 425.93900285 198.47937584 423.9472084 C198.49843002 414.58783898 198.51265954 405.22847744 198.52098781 395.86909235 C198.5307559 385.07010305 198.55706334 374.27131897 198.5974887 363.47240198 C198.62766924 355.12322358 198.6424586 346.77410392 198.64576882 338.42487204 C198.64811746 333.43958728 198.65705352 328.45452168 198.68223 323.4692955 C198.70554902 318.77592486 198.70972854 314.08291709 198.69946861 309.38950348 C198.69897404 307.67105781 198.70527119 305.95259404 198.71902466 304.23420334 C198.80551227 292.78334658 198.04407019 283.65735631 190.00999451 274.84446716 C183.78135192 269.35342699 177.27729187 267.15361625 169.095047 267.12698364 C168.36379439 267.12330695 167.63254178 267.11963027 166.87913001 267.11584216 C164.42193064 267.10480457 161.96477355 267.10096133 159.5075531 267.09715271 C157.74833542 267.09088802 155.98911907 267.08424121 154.22990417 267.07723999 C148.44567283 267.05619457 142.66144122 267.04583589 136.87718201 267.03587341 C134.88538728 267.03182578 132.89359269 267.02770885 130.90179825 267.02352333 C121.54242882 267.00446915 112.18306729 266.99023963 102.82368219 266.98191136 C92.0246929 266.97214327 81.22590882 266.94583583 70.42699182 266.90541047 C62.07781342 266.87522993 53.72869377 266.86044057 45.37946188 266.85713035 C40.39417712 266.85478171 35.40911152 266.84584565 30.42388535 266.82066917 C25.73051471 266.79735015 21.03750693 266.79317063 16.34409332 266.80343056 C14.62564765 266.80392513 12.90718389 266.79762798 11.18879318 266.78387451 C-1.79250919 266.68582754 -11.72217603 268.11953155 -20.77125549 278.27415466 Z M225.22874451 278.27415466 C221.46394965 284.19336969 220.10441281 289.39100334 220.08157349 296.40785217 C220.0778968 297.13910478 220.07422011 297.87035739 220.07043201 298.62376916 C220.05939441 301.08096853 220.05555117 303.53812562 220.05174255 305.99534607 C220.04547786 307.75456375 220.03883106 309.5137801 220.03182983 311.272995 C220.01078442 317.05722634 220.00042573 322.84145795 219.99046326 328.62571716 C219.98641562 330.61751189 219.9822987 332.60930648 219.97811317 334.60110092 C219.95905899 343.96047035 219.94482948 353.31983188 219.9365012 362.67921698 C219.92673311 373.47820627 219.90042568 384.27699035 219.86000031 395.07590735 C219.82981977 403.42508575 219.81503041 411.7742054 219.81172019 420.12343729 C219.80937155 425.10872205 219.80043549 430.09378765 219.77525902 435.07901382 C219.75193999 439.77238446 219.74776047 444.46539224 219.7580204 449.15880585 C219.75851497 450.87725152 219.75221783 452.59571528 219.73846436 454.31410599 C219.65197674 465.76496274 220.41341882 474.89095302 228.44749451 483.70384216 C234.6761371 489.19488234 241.18019715 491.39469308 249.36244202 491.42132568 C250.45932093 491.42684072 250.45932093 491.42684072 251.57835901 491.43246716 C254.03555838 491.44350476 256.49271546 491.447348 258.94993591 491.45115662 C260.70915359 491.45742131 262.46836994 491.46406811 264.22758484 491.47106934 C270.01181618 491.49211475 275.7960478 491.50247344 281.58030701 491.51243591 C283.57210173 491.51648355 285.56389632 491.52060047 287.55569077 491.524786 C296.91506019 491.54384018 306.27442173 491.55806969 315.63380682 491.56639796 C326.43279612 491.57616606 337.2315802 491.60247349 348.03049719 491.64289886 C356.37967559 491.6730794 364.72879525 491.68786876 373.07802713 491.69117898 C378.06331189 491.69352762 383.04837749 491.70246367 388.03360367 491.72764015 C392.72697431 491.75095918 397.41998208 491.7551387 402.11339569 491.74487877 C403.83184136 491.7443842 405.55030513 491.75068134 407.26869583 491.76443481 C418.71955259 491.85092243 427.84554286 491.08948035 436.65843201 483.05540466 C442.14947218 476.82676207 444.34928292 470.32270202 444.37591553 462.14045715 C444.37959222 461.40920455 444.3832689 460.67795194 444.38705701 459.92454016 C444.3980946 457.46734079 444.40193784 455.01018371 444.40574646 452.55296326 C444.41201115 450.79374558 444.41865796 449.03452923 444.42565918 447.27531433 C444.4467046 441.49108299 444.45706328 435.70685137 444.46702576 429.92259216 C444.47107339 427.93079744 444.47519032 425.93900285 444.47937584 423.9472084 C444.49843002 414.58783898 444.51265954 405.22847744 444.52098781 395.86909235 C444.5307559 385.07010305 444.55706334 374.27131897 444.5974887 363.47240198 C444.62766924 355.12322358 444.6424586 346.77410392 444.64576882 338.42487204 C444.64811746 333.43958728 444.65705352 328.45452168 444.68223 323.4692955 C444.70554902 318.77592486 444.70972854 314.08291709 444.69946861 309.38950348 C444.69897404 307.67105781 444.70527119 305.95259404 444.71902466 304.23420334 C444.80551227 292.78334658 444.04407019 283.65735631 436.00999451 274.84446716 C429.78135192 269.35342699 423.27729187 267.15361625 415.095047 267.12698364 C414.36379439 267.12330695 413.63254178 267.11963027 412.87913001 267.11584216 C410.42193064 267.10480457 407.96477355 267.10096133 405.5075531 267.09715271 C403.74833542 267.09088802 401.98911907 267.08424121 400.22990417 267.07723999 C394.44567283 267.05619457 388.66144122 267.04583589 382.87718201 267.03587341 C380.88538728 267.03182578 378.89359269 267.02770885 376.90179825 267.02352333 C367.54242882 267.00446915 358.18306729 266.99023963 348.82368219 266.98191136 C338.0246929 266.97214327 327.22590882 266.94583583 316.42699182 266.90541047 C308.07781342 266.87522993 299.72869377 266.86044057 291.37946188 266.85713035 C286.39417712 266.85478171 281.40911152 266.84584565 276.42388535 266.82066917 C271.73051471 266.79735015 267.03750693 266.79317063 262.34409332 266.80343056 C260.62564765 266.80392513 258.90718389 266.79762798 257.18879318 266.78387451 C244.20749081 266.68582754 234.27782397 268.11953155 225.22874451 278.27415466 Z " fill="#F28E37" transform="translate(46.77125549316406,-0.2741546630859375)"/>
<path d="M0 0 C1.21042969 0.10248047 1.21042969 0.10248047 2.4453125 0.20703125 C16.2678229 2.04062957 28.51479358 9.69043879 37.02734375 20.59765625 C45.55769238 33.13167803 48.60421571 47.06898636 45.8203125 61.96875 C44.63666798 66.34259832 42.81614671 70.342821 40.828125 74.40625 C39.73948676 76.93727217 39.73948676 76.93727217 40.73046875 79.19921875 C42.05314581 81.14804038 42.05314581 81.14804038 44.0625 83.3125 C46.48073423 86.6668249 46.92648158 88.88296867 47 93 C45.42502021 96.64732163 43.55293758 99.17551854 40 101 C35.60200779 101.7329987 33.41916183 101.97024329 29.703125 99.4296875 C27.71503017 97.68834203 25.82901385 95.90684423 24 94 C23.28714844 94.33773437 22.57429688 94.67546875 21.83984375 95.0234375 C7.49589404 101.70312337 -5.78273238 103.94948148 -21.10546875 98.99609375 C-34.09322194 94.00840146 -44.27505488 85.13163631 -50.375 72.5625 C-56.05864277 59.28007397 -56.39259511 46.77677557 -52 33 C-46.12895907 18.92455572 -35.35979955 8.66509929 -21.38671875 2.8125 C-14.53555658 0.48018947 -7.22076994 -0.61308424 0 0 Z M-28 33 C-33.64449712 40.69140267 -33.72433209 48.73671068 -33 58 C-31.17713966 65.12477985 -26.86437399 71.4458076 -20.71875 75.5078125 C-15.01880366 78.74641837 -10.75401899 80.1524629 -4.125 80.1875 C-2.91070312 80.20167969 -1.69640625 80.21585938 -0.4453125 80.23046875 C2.84344421 80.01047255 5.05365948 79.41715618 8 78 C7.57847656 77.44570312 7.15695313 76.89140625 6.72265625 76.3203125 C6.17480469 75.59585938 5.62695312 74.87140625 5.0625 74.125 C4.51722656 73.40570313 3.97195312 72.68640625 3.41015625 71.9453125 C0.90071178 68.48353038 0.66456455 66.27680199 1 62 C2.36323449 58.84303591 3.35057585 57.38614409 6.3125 55.625 C9.77511232 54.81974132 11.58103408 54.92738324 15 56 C17.80944221 57.834012 20.41950381 59.85831915 23 62 C26.33785935 56.508683 25.72131409 50.17625189 25 44 C22.15299767 35.05078311 17.18839997 28.73994607 9.203125 23.9140625 C-4.5840055 17.49185214 -18.34490421 22.66068482 -28 33 Z " fill="#F28E37" transform="translate(142,82)"/>
<path d="M0 0 C1.04143158 -0.00960754 2.08286316 -0.01921509 3.15585327 -0.02911377 C4.27569611 -0.03336365 5.39553894 -0.03761353 6.54931641 -0.04199219 C8.28406723 -0.0505423 8.28406723 -0.0505423 10.05386353 -0.05926514 C12.49992967 -0.06870837 14.94600851 -0.07524643 17.39208984 -0.07910156 C21.12962044 -0.08881196 24.86660222 -0.11984456 28.60400391 -0.15136719 C30.98160481 -0.15789702 33.35920964 -0.16314757 35.73681641 -0.16699219 C37.41050797 -0.18551239 37.41050797 -0.18551239 39.11801147 -0.20440674 C44.73597895 -0.18831483 48.97027073 -0.10996968 53.77587891 3.16113281 C56.50227857 6.1513776 56.76165944 7.9848114 57.08837891 12.03613281 C56.0121217 18.93550795 51.23370629 24.42798816 47.29101562 29.98779297 C44.62383619 33.81364397 42.11503619 37.74168371 39.58837891 41.66113281 C38.49385166 43.3502751 37.3987855 45.03906827 36.30322266 46.72753906 C35.73716309 47.60039551 35.17110352 48.47325195 34.58789062 49.37255859 C32.63574011 52.37679777 30.67727402 55.37684567 28.71728516 58.37597656 C28.04012451 59.41238281 27.36296387 60.44878906 26.6652832 61.51660156 C25.34843229 63.53137868 24.03091463 65.5457202 22.71264648 67.55957031 C22.11218506 68.47867188 21.51172363 69.39777344 20.89306641 70.34472656 C20.36310059 71.15482178 19.83313477 71.96491699 19.28710938 72.79956055 C17.73441582 75.22592642 16.24610333 77.68408242 14.77587891 80.16113281 C15.77441895 80.14542236 16.77295898 80.12971191 17.80175781 80.11352539 C21.52530777 80.05900662 25.24882281 80.02470347 28.97265625 79.99633789 C30.58078963 79.98130105 32.18888234 79.9608661 33.796875 79.93481445 C36.11549954 79.89820459 38.4335794 79.8813556 40.75244141 79.86816406 C41.46518219 79.85268021 42.17792297 79.83719635 42.91226196 79.82124329 C48.47399012 79.81939067 52.49858058 81.11156432 56.65087891 84.84863281 C58.31223451 88.26364155 58.44091541 91.48516182 57.77587891 95.16113281 C55.60607808 98.72580559 53.61916728 100.62706258 49.77587891 102.16113281 C47.12660217 102.42182922 47.12660217 102.42182922 44.0769043 102.43579102 C42.93214127 102.44532303 41.78737823 102.45485504 40.60792542 102.4646759 C39.37557663 102.4637645 38.14322784 102.46285309 36.87353516 102.46191406 C35.60368271 102.46619919 34.33383026 102.47048431 33.02549744 102.47489929 C30.33969284 102.48064306 27.65427251 102.48207762 24.96850586 102.47680664 C21.53415099 102.47101343 18.10033568 102.48794339 14.66606998 102.51115131 C11.38106253 102.52946315 8.09608445 102.5257027 4.81103516 102.52441406 C3.5807106 102.53362381 2.35038605 102.54283356 1.08277893 102.55232239 C-0.06513626 102.5460936 -1.21305145 102.53986481 -2.39575195 102.53344727 C-3.40294785 102.53407669 -4.41014374 102.53470612 -5.44786072 102.53535461 C-9.4810305 101.99170962 -12.09682304 100.21068618 -15.03662109 97.47363281 C-16.77894649 94.08068336 -16.75337803 90.86093448 -16.22412109 87.16113281 C-15.09582085 84.40263446 -13.53253124 82.04936624 -11.84912109 79.59863281 C-11.39577393 78.90737305 -10.94242676 78.21611328 -10.4753418 77.50390625 C-9.07536828 75.37767075 -7.65172708 73.2688836 -6.22412109 71.16113281 C-5.41146703 69.93944393 -4.60020285 68.71682902 -3.79052734 67.49316406 C-2.17753221 65.06055893 -0.55507589 62.63461337 1.07275391 60.21191406 C9.48768533 47.6492642 17.61503118 34.88974248 25.77587891 22.16113281 C24.8379248 22.17684326 23.8999707 22.19255371 22.93359375 22.20874023 C19.43353685 22.26005246 15.9338832 22.29757153 12.43359375 22.32592773 C10.92246163 22.34095825 9.41137273 22.36138845 7.90039062 22.38745117 C5.72075704 22.42408971 3.54170316 22.4409162 1.36181641 22.45410156 C0.0526123 22.46981201 -1.2565918 22.48552246 -2.60546875 22.50170898 C-6.52769868 22.13256105 -8.89841535 21.23870199 -12.22412109 19.16113281 C-14.62827579 15.74878422 -15.22412109 13.7792359 -15.22412109 9.59863281 C-14.02585334 5.47958741 -12.56656584 3.8039961 -9.22412109 1.16113281 C-6.13801939 0.11748104 -3.24255597 0.02420857 0 0 Z " fill="#F18E37" transform="translate(358.22412109375,327.8388671875)"/>
<path d="M0 0 C3.35079508 2.7756495 4.75660239 4.48323177 5.45147705 8.81344604 C5.62629349 12.37262752 5.639314 15.90154404 5.6015625 19.46484375 C5.6137963 21.46146872 5.62604555 23.45809373 5.6391964 25.45471287 C5.65170846 28.24245729 5.64207612 31.02994709 5.63201904 33.81768799 C5.61588003 38.69181035 5.61870291 43.56576098 5.64559937 48.43983459 C5.65767196 51.03082208 5.65504723 53.62193054 5.63589478 56.21287537 C5.65553428 62.55943662 5.76275759 67.45976266 9 73 C14.04919718 77.79673732 18.38857185 78.41022185 25.13671875 78.34765625 C29.54221089 77.81274656 32.80428937 76.05250661 36 73 C38.74794717 69.15286865 39.37310077 66.52066413 39.36889648 61.8203125 C39.37577988 60.59554199 39.38266327 59.37077148 39.38975525 58.10888672 C39.38359695 56.7942041 39.37743866 55.47952148 39.37109375 54.125 C39.3777912 52.75405871 39.38637061 51.38312544 39.39674377 50.01220703 C39.43674033 44.20541706 39.4380455 38.39870175 39.43579102 32.59179688 C39.43573984 29.03264779 39.45493975 25.47399186 39.48512459 21.91497803 C39.49592143 19.90704685 39.48379543 17.8990346 39.47129822 15.89111328 C39.48133377 14.66634277 39.49136932 13.44157227 39.50170898 12.1796875 C39.50154282 11.10444824 39.50137665 10.02920898 39.50120544 8.92138672 C40.22679961 4.67165877 42.427515 2.19291965 45.8125 -0.375 C49.21936744 -1.3483907 51.59291615 -0.89660101 55 0 C57.58297781 2.18991597 59.48415844 3.96831688 61 7 C61.1118754 8.97354237 61.1593018 10.95085869 61.17700195 12.92749023 C61.19625481 14.79599892 61.19625481 14.79599892 61.21589661 16.70225525 C61.22406962 18.07103069 61.23151227 19.43981065 61.23828125 20.80859375 C61.24235678 21.49911394 61.2464323 22.18963413 61.25063133 22.90107918 C61.27151048 26.5641767 61.2857976 30.22723668 61.29516602 33.89038086 C61.30616454 37.64935454 61.34048126 41.40772539 61.38033772 45.16648769 C61.40668443 48.07586145 61.41487423 50.98509643 61.41844749 53.89457893 C61.42327626 55.27828043 61.43478252 56.66197732 61.45348549 58.04556084 C61.60096008 69.69006167 60.2483993 79.58004818 51.90625 88.22265625 C42.79506567 96.71771541 32.61805714 101.14672159 20 101 C7.85374246 99.96312436 -1.87497686 93.88395387 -10 85 C-11.75748849 82.43026683 -13.00099598 79.94271837 -14 77 C-14.50684326 75.64297974 -14.50684326 75.64297974 -15.02392578 74.25854492 C-16.71624158 68.25021438 -16.32917807 61.93674567 -16.3359375 55.74609375 C-16.3423741 54.35799526 -16.34910309 52.9698981 -16.35610962 51.58180237 C-16.36803767 48.68283949 -16.37179477 45.78399542 -16.37060547 42.88500977 C-16.37040181 39.18057283 -16.39777162 35.47689896 -16.43214989 31.77264309 C-16.45443694 28.90978018 -16.45844258 26.04710099 -16.45738602 23.18416023 C-16.45973665 21.8186688 -16.46852991 20.45317189 -16.48405075 19.08776665 C-16.6208263 5.82078128 -16.6208263 5.82078128 -12 1 C-7.91068155 -1.54200876 -4.56466226 -1.30418922 0 0 Z " fill="#F28E37" transform="translate(358,83)"/>
<path d="M0 0 C3.12780233 2.46931763 4.33028575 4.13248276 5 8 C5.10421812 10.63209637 5.15716388 13.23809913 5.16113281 15.87036133 C5.16609772 16.65949417 5.17106262 17.44862701 5.17617798 18.26167297 C5.19076494 20.86846799 5.19759589 23.47520215 5.203125 26.08203125 C5.20887939 27.89800518 5.21463709 29.7139791 5.22039795 31.529953 C5.23089814 35.33711021 5.2367472 39.14424637 5.24023438 42.95141602 C5.2457164 47.82037056 5.26974235 52.68904508 5.29820633 57.55791187 C5.31686646 61.30951236 5.32204011 65.06104586 5.32357025 68.81268883 C5.32658979 70.60716978 5.33459465 72.40164975 5.34775543 74.19608498 C5.36488638 76.71142266 5.36291866 79.22608208 5.35644531 81.74145508 C5.3656601 82.47676453 5.37487488 83.21207397 5.3843689 83.96966553 C5.34314226 89.10566243 4.3695849 92.53426577 2 97 C-1.40745087 99.47814609 -3.35056907 100 -7.5625 100 C-11.65945182 98.80815947 -13.33730767 97.28920817 -16 94 C-17.22018709 90.33943872 -17.15548371 86.96336664 -17.16113281 83.15136719 C-17.16609772 82.3526268 -17.17106262 81.55388641 -17.17617798 80.73094177 C-17.19079228 78.0862441 -17.19760108 75.44160644 -17.203125 72.796875 C-17.20887792 70.95705158 -17.21463564 69.11722818 -17.22039795 67.27740479 C-17.23090645 63.4171928 -17.23674982 59.55700162 -17.24023438 55.69677734 C-17.24571278 50.75941438 -17.26972745 45.82232806 -17.29820633 40.88505173 C-17.31686712 37.08283699 -17.32204019 33.28068836 -17.32357025 29.4784317 C-17.32659053 27.65883119 -17.33459793 25.83923166 -17.34775543 24.01967621 C-17.36488481 21.46830978 -17.36291881 18.91761216 -17.35644531 16.36621094 C-17.3656601 15.61997971 -17.37487488 14.87374847 -17.3843689 14.10490417 C-17.34346485 8.93668098 -16.42301274 5.47745725 -14 1 C-8.80675031 -2.29571615 -5.60979182 -2.43443796 0 0 Z " fill="#F28E37" transform="translate(139,330)"/>
</svg>
