<?xml version="1.0" encoding="UTF-8"?>
<svg version="1.1" xmlns="http://www.w3.org/2000/svg" width="569" height="504">
<path d="M0 0 C187.77 0 375.54 0 569 0 C569 166.32 569 332.64 569 504 C381.23 504 193.46 504 0 504 C0 337.68 0 171.36 0 0 Z " fill="#FEFDFC" transform="translate(0,0)"/>
<path d="M0 0 C1.36403709 -0.0098568 1.36403709 -0.0098568 2.75563049 -0.01991272 C5.7706816 -0.03965015 8.78568275 -0.0513125 11.80078125 -0.0612793 C12.8323938 -0.06535482 13.86400635 -0.06943035 14.92687988 -0.07362938 C20.39249471 -0.0944971 25.85808441 -0.10879291 31.32373047 -0.11816406 C36.95129559 -0.1291991 42.57846211 -0.16356353 48.20588684 -0.20333576 C52.54698383 -0.22957549 56.88798718 -0.23786268 61.22915649 -0.24144554 C63.3022428 -0.2462965 65.37532534 -0.25786761 67.44833374 -0.27648354 C79.58202667 -0.37862798 89.88441084 -0.46038661 100.42578125 6.30200195 C107.86545687 14.26072471 112.3811546 25.17853706 117.34570312 34.7824707 C117.88904297 35.80727539 118.43238281 36.83208008 118.9921875 37.88793945 C119.47244385 38.80881348 119.9527002 39.7296875 120.44750977 40.6784668 C122.40921454 43.6208802 124.15970325 45.21932134 127.11328125 47.17700195 C130.38630802 47.75656353 130.38630802 47.75656353 133.9921875 47.64355469 C135.00071526 47.64701401 135.00071526 47.64701401 136.02961731 47.65054321 C137.48425312 47.65316515 138.9389275 47.64676599 140.39349365 47.63229179 C142.70821515 47.61028738 145.02163763 47.61416187 147.33642578 47.62477112 C153.09078616 47.64637998 158.84485748 47.6292676 164.59918213 47.60327148 C169.45628756 47.58169873 174.31255398 47.58017596 179.16964722 47.60618782 C181.42819934 47.61048148 183.68522221 47.58606357 185.94360352 47.56065369 C199.73128122 47.54649293 210.93045867 51.38873895 220.9765625 60.95043945 C229.37092052 69.7582241 232.22888905 79.78068508 232.24699402 91.75996399 C232.251259 93.04250061 232.25552399 94.32503723 232.25991821 95.6464386 C232.25956877 97.05026248 232.25910728 98.45408634 232.25854492 99.85791016 C232.26154017 101.35008833 232.26494354 102.84226574 232.26872253 104.33444214 C232.27752964 108.3738306 232.27989926 112.41319786 232.28053832 116.452595 C232.2812507 118.98026704 232.28338858 121.50793376 232.28603554 124.03560448 C232.29527813 132.86521113 232.29937179 141.69480273 232.29858398 150.52441406 C232.29798351 158.73650287 232.30853218 166.94852592 232.32432765 175.1605981 C232.33743132 182.22665759 232.34276669 189.29269567 232.34212857 196.35876721 C232.34187442 200.5720957 232.34468013 204.78536571 232.35530663 208.99868202 C232.36503529 212.96401055 232.36503432 216.92922526 232.35778999 220.89455795 C232.35675005 222.34327932 232.35907165 223.79200795 232.36515045 225.24071693 C232.40581794 235.61084028 232.12006559 245.14328789 227.23828125 254.48950195 C226.74585938 255.45500977 226.2534375 256.42051758 225.74609375 257.4152832 C219.50715649 267.96774407 209.72463047 273.49078551 198.15539932 276.74403572 C194.42395722 277.53516942 190.69644307 277.45988436 186.89599609 277.44824219 C185.55053207 277.45608231 185.55053207 277.45608231 184.17788696 277.46408081 C182.23930983 277.47428265 180.30070559 277.48009452 178.36210251 277.4819622 C175.28299123 277.48564501 172.20419657 277.5024263 169.12515259 277.52272034 C160.37369712 277.57793345 151.62219489 277.60871312 142.87060547 277.63330078 C137.50669827 277.64927446 132.14301487 277.67959837 126.7792244 277.71806526 C124.74691794 277.72963252 122.71457128 277.73564488 120.6822319 277.73574638 C109.74583328 277.73649039 99.64853859 277.92644087 89.11328125 281.17700195 C88.39655243 281.39417374 87.67982361 281.61134552 86.94137573 281.83509827 C71.77406254 286.81472167 56.25285757 296.96675232 47.11328125 310.17700195 C46.5407174 313.05431872 46.5407174 313.05431872 46.65917969 316.16064453 C46.65948181 317.34149124 46.65978394 318.52233795 46.66009521 319.7389679 C46.68074036 321.00371445 46.7013855 322.268461 46.72265625 323.5715332 C46.73114594 325.52527107 46.73114594 325.52527107 46.73980713 327.51847839 C46.75502836 330.96946296 46.79427809 334.41976658 46.83862305 337.8704834 C46.87965267 341.39639069 46.89783443 344.92240876 46.91796875 348.44848633 C46.9607771 355.35827002 47.02898474 362.26760323 47.11328125 369.17700195 C48.03471924 368.50805908 48.95615723 367.83911621 49.90551758 367.14990234 C58.67977098 360.80987989 67.4992385 355.18042982 77.11328125 350.17700195 C78.18956787 349.61432617 78.18956787 349.61432617 79.28759766 349.0402832 C95.60398715 340.62910727 112.86634276 334.88928968 130.61328125 330.30200195 C131.34023193 330.11089844 132.06718262 329.91979492 132.81616211 329.72290039 C147.20388201 326.20926774 161.75917213 325.76759203 176.48828125 325.80200195 C177.86907867 325.80331619 177.86907867 325.80331619 179.277771 325.80465698 C203.37181227 325.88002747 225.15322319 329.75114189 248.11328125 337.17700195 C247.82195312 336.04649414 247.530625 334.91598633 247.23046875 333.7512207 C244.39599056 322.63973771 241.80722924 311.48882093 239.35839844 300.28613281 C238.16707099 294.8536951 236.94955688 289.43319103 235.62109375 284.0324707 C235.38777344 283.08235107 235.15445312 282.13223145 234.9140625 281.15332031 C234.47843364 279.39585374 234.03621835 277.64000024 233.5859375 275.88623047 C232.43261684 271.23046208 231.69955763 267.01391775 232.11328125 262.17700195 C234.56328572 258.79023106 235.97720571 257.39001612 240.11328125 256.61450195 C243.93275171 257.33065266 245.36292928 258.42664998 248.11328125 261.17700195 C249.1952934 263.95094096 249.98760951 266.43503376 250.67578125 269.30200195 C250.85818359 269.99165039 251.04058594 270.68129883 251.22851562 271.3918457 C252.81318333 277.52638984 254.13053793 283.72584709 255.49499512 289.91215515 C257.28703794 298.01453707 259.18030854 306.09196142 261.09545898 314.16601562 C261.68117041 316.63723982 262.26351339 319.10924289 262.84570312 321.58129883 C264.60924981 329.0426837 266.42199924 336.47199003 268.48510742 343.85742188 C269.44886607 347.41617467 270.22356304 351.00867834 270.98828125 354.61450195 C272.05542426 359.58172253 273.18150365 364.51857365 274.48046875 369.4309082 C274.71008301 370.30626221 274.93969727 371.18161621 275.17626953 372.08349609 C275.62000959 373.75863846 276.07344234 375.43125688 276.53857422 377.10058594 C280.11890232 390.68080137 280.11890232 390.68080137 277.09887695 395.9453125 C275.67578125 397.36450195 275.67578125 397.36450195 272.11328125 399.17700195 C264.34694114 398.75996444 256.82443293 396.93705522 249.23828125 395.30200195 C222.03268086 389.57307302 195.69046344 386.75783776 167.86328125 386.80200195 C166.63160217 386.80221344 165.3999231 386.80242493 164.13092041 386.80264282 C144.82022721 386.83568494 126.12782733 387.61798894 107.11328125 391.17700195 C106.10942383 391.3589209 105.10556641 391.54083984 104.07128906 391.72827148 C84.83788925 395.32850139 65.65229173 401.16009122 48.35083008 410.38305664 C43.62464316 412.82230947 39.48601407 414.20242928 34.11328125 413.17700195 C30.81384389 412.0556527 27.73726766 410.58866884 24.61328125 409.05200195 C22.83632171 408.21767184 21.05765158 407.38697585 19.27734375 406.55981445 C18.40239258 406.15150391 17.52744141 405.74319336 16.62597656 405.32250977 C1.48061337 398.41791939 -14.55803437 394.0211934 -30.88671875 390.98950195 C-31.71510254 390.83465332 -32.54348633 390.67980469 -33.39697266 390.52026367 C-36.22137165 390.02368386 -39.04884884 389.59007897 -41.88671875 389.17700195 C-43.11567871 388.9960498 -44.34463867 388.81509766 -45.61083984 388.62866211 C-58.33457119 386.91292367 -71.03068294 386.87165177 -83.85205078 386.91625977 C-87.48487272 386.92692315 -91.11719354 386.916337 -94.75 386.90356445 C-114.00598687 386.89147996 -133.24305208 387.71012836 -152.26171875 390.92700195 C-153.2657373 391.08966553 -154.26975586 391.2523291 -155.30419922 391.41992188 C-164.4008097 392.95804024 -173.36468901 395.03810373 -182.29833984 397.33422852 C-188.85654837 398.96214528 -193.94340768 400.04488614 -200.26171875 397.05200195 C-202.68723983 394.25332378 -202.59797981 391.83436186 -202.88671875 388.17700195 C-202.49819311 385.54302667 -202.02924124 383.11968772 -201.38671875 380.55200195 C-201.20802246 379.7940332 -201.02932617 379.03606445 -200.84521484 378.25512695 C-200.20554164 375.5590972 -199.54622272 372.86824731 -198.88671875 370.17700195 C-198.34685148 367.94021687 -197.80783828 365.70322554 -197.26953125 363.46606445 C-196.38246999 359.78423489 -195.49371408 356.10285202 -194.60009766 352.42260742 C-192.3383067 343.10190787 -190.15783697 333.76467905 -188.01391602 324.41625977 C-186.33240125 317.08953966 -184.61723373 309.77195881 -182.85546875 302.46411133 C-181.733228 297.79287356 -180.64160855 293.11620071 -179.58659363 288.42926025 C-178.9696018 285.69027424 -178.34623847 282.95275071 -177.72286987 280.21520996 C-177.41817646 278.86851789 -177.11662331 277.52111103 -176.81838989 276.17297363 C-176.39864641 274.2766943 -175.96709643 272.38304032 -175.53515625 270.48950195 C-175.28942871 269.39250977 -175.04370117 268.29551758 -174.79052734 267.1652832 C-173.39390361 262.54759694 -171.92336528 259.86809964 -167.88671875 257.17700195 C-163.92676046 256.5743996 -162.36335365 256.85579148 -159.01171875 259.11450195 C-156.13392903 263.26190479 -156.14633814 266.36106829 -156.88671875 271.17700195 C-157.53848399 273.94427338 -158.26310676 276.68048898 -159.04296875 279.41430664 C-160.90347129 285.98618381 -162.3677473 292.63039295 -163.82421875 299.30200195 C-165.90928761 308.83621173 -168.07434753 318.34286422 -170.41381836 327.81811523 C-170.60854736 328.61717285 -170.80327637 329.41623047 -171.00390625 330.23950195 C-171.17519043 330.93172852 -171.34647461 331.62395508 -171.52294922 332.3371582 C-171.98370012 334.3549296 -171.98370012 334.3549296 -171.88671875 337.17700195 C-170.85675781 336.8624707 -169.82679688 336.54793945 -168.765625 336.22387695 C-161.30799822 333.97173379 -153.83526397 331.81916105 -146.26171875 329.98950195 C-145.01132813 329.68657227 -143.7609375 329.38364258 -142.47265625 329.0715332 C-129.85001581 326.46317548 -117.5301331 325.85655283 -104.68969727 325.91625977 C-101.9563167 325.92697413 -99.22359508 325.91630397 -96.49023438 325.90356445 C-82.26466444 325.89112039 -68.49978972 326.94396446 -54.63671875 330.36450195 C-53.31994141 330.68596191 -53.31994141 330.68596191 -51.9765625 331.01391602 C-25.27217115 337.76642127 8.11281593 349.17653664 28.11328125 369.17700195 C28.32288668 361.65771756 28.48226099 354.13874005 28.5795908 346.61718941 C28.62633598 343.1233735 28.68959877 339.63157232 28.79223633 336.13891602 C28.9098068 332.112366 28.95258971 328.08789184 28.9921875 324.05981445 C29.03863907 322.82087433 29.08509064 321.5819342 29.13294983 320.30545044 C29.13683946 313.55091155 28.40698112 309.7130852 23.85913086 304.57104492 C22.31752536 303.06395891 20.73524394 301.59724589 19.11328125 300.17700195 C18.2736232 299.43539825 17.43396515 298.69379456 16.56886292 297.92971802 C-2.27155438 281.81280263 -23.06060753 277.88553486 -47.04248238 277.90260696 C-50.07524112 277.90358365 -53.10765642 277.89049796 -56.1403656 277.87362671 C-64.7542768 277.82768669 -73.36814791 277.80274967 -81.98217773 277.79614258 C-87.27408331 277.79110789 -92.56562332 277.76676921 -97.85740471 277.73081589 C-99.86066422 277.72107345 -101.86397433 277.7186553 -103.86725044 277.72398758 C-123.81718405 277.77463221 -123.81718405 277.77463221 -132.88671875 273.17700195 C-133.881875 272.7077832 -134.87703125 272.23856445 -135.90234375 271.75512695 C-146.29376529 265.57840786 -152.64743309 257.12150894 -155.93374634 245.46237183 C-157.40042395 238.65710317 -157.18264698 231.75065093 -157.17724609 224.82592773 C-157.1832396 223.28581418 -157.19004702 221.74570361 -157.19760132 220.20559692 C-157.21518263 216.04435072 -157.21995329 211.8831869 -157.22123289 207.72190714 C-157.22265926 205.11682064 -157.22693797 202.51175478 -157.23222733 199.90667343 C-157.25069993 190.80357291 -157.25890121 181.70053076 -157.25732422 172.59741211 C-157.25612283 164.13528602 -157.27723179 155.67341499 -157.30881155 147.21135342 C-157.33502592 139.92527328 -157.34568939 132.6392762 -157.3444134 125.35314929 C-157.34390538 121.01064175 -157.34949968 116.66836125 -157.3707695 112.32590103 C-157.39023986 108.23978359 -157.39021688 104.15410779 -157.37573624 100.06797409 C-157.37365806 98.57612711 -157.37828941 97.08425181 -157.39045715 95.592453 C-157.49689633 81.62861776 -154.45780199 70.50067796 -144.921875 60.0168457 C-138.70523826 54.0025588 -130.55303836 48.91864964 -121.63671875 48.86450195 C-120.72921875 48.96762695 -119.82171875 49.07075195 -118.88671875 49.17700195 C-118.94472656 48.36875977 -119.00273437 47.56051758 -119.0625 46.7277832 C-119.13017578 45.12483398 -119.13017578 45.12483398 -119.19921875 43.48950195 C-119.25722656 42.43375977 -119.31523437 41.37801758 -119.375 40.2902832 C-118.69855227 35.97725251 -117.35309307 34.80929963 -113.88671875 32.17700195 C-110.57282415 31.44327255 -107.33283582 31.475754 -103.94921875 31.51293945 C-102.99152588 31.50815582 -102.03383301 31.50337219 -101.04711914 31.4984436 C-99.0265132 31.49504794 -97.00585207 31.504227 -94.98535156 31.52514648 C-91.89653764 31.55191685 -88.81135745 31.52538743 -85.72265625 31.4934082 C-83.75650241 31.49671236 -81.79035084 31.50311872 -79.82421875 31.51293945 C-78.90326416 31.5028183 -77.98230957 31.49269714 -77.03344727 31.48226929 C-72.49910957 31.56494519 -70.49927777 31.70912667 -66.79614258 34.53759766 C-64.5348873 37.66333999 -64.34488296 39.1825279 -64.57421875 42.98950195 C-64.61933594 43.96532227 -64.66445312 44.94114258 -64.7109375 45.9465332 C-64.76894531 46.68258789 -64.82695312 47.41864258 -64.88671875 48.17700195 C-62.46910999 48.06273686 -60.05324657 47.93600534 -57.63671875 47.80200195 C-56.95480469 47.77106445 -56.27289063 47.74012695 -55.5703125 47.70825195 C-51.84048291 47.49098033 -48.99079951 47.28860076 -45.88671875 45.17700195 C-44.04906099 42.4502078 -44.04906099 42.4502078 -42.42578125 39.13793945 C-42.11273041 38.53825348 -41.79967957 37.9385675 -41.47714233 37.32070923 C-40.47762526 35.40329179 -39.49354816 33.47852872 -38.51171875 31.55200195 C-29.56837487 14.10493238 -21.62809241 0.06760322 0 0 Z " fill="#FEFCFB" transform="translate(247.88671875,60.822998046875)"/>
<path d="M0 0 C1.36403709 -0.0098568 1.36403709 -0.0098568 2.75563049 -0.01991272 C5.7706816 -0.03965015 8.78568275 -0.0513125 11.80078125 -0.0612793 C12.8323938 -0.06535482 13.86400635 -0.06943035 14.92687988 -0.07362938 C20.39249471 -0.0944971 25.85808441 -0.10879291 31.32373047 -0.11816406 C36.95129559 -0.1291991 42.57846211 -0.16356353 48.20588684 -0.20333576 C52.54698383 -0.22957549 56.88798718 -0.23786268 61.22915649 -0.24144554 C63.3022428 -0.2462965 65.37532534 -0.25786761 67.44833374 -0.27648354 C79.58202667 -0.37862798 89.88441084 -0.46038661 100.42578125 6.30200195 C107.86545687 14.26072471 112.3811546 25.17853706 117.34570312 34.7824707 C117.88904297 35.80727539 118.43238281 36.83208008 118.9921875 37.88793945 C119.47244385 38.80881348 119.9527002 39.7296875 120.44750977 40.6784668 C122.40921454 43.6208802 124.15970325 45.21932134 127.11328125 47.17700195 C130.38630802 47.75656353 130.38630802 47.75656353 133.9921875 47.64355469 C135.00071526 47.64701401 135.00071526 47.64701401 136.02961731 47.65054321 C137.48425312 47.65316515 138.9389275 47.64676599 140.39349365 47.63229179 C142.70821515 47.61028738 145.02163763 47.61416187 147.33642578 47.62477112 C153.09078616 47.64637998 158.84485748 47.6292676 164.59918213 47.60327148 C169.45628756 47.58169873 174.31255398 47.58017596 179.16964722 47.60618782 C181.42819934 47.61048148 183.68522221 47.58606357 185.94360352 47.56065369 C199.73128122 47.54649293 210.93045867 51.38873895 220.9765625 60.95043945 C229.37092052 69.7582241 232.22888905 79.78068508 232.24699402 91.75996399 C232.251259 93.04250061 232.25552399 94.32503723 232.25991821 95.6464386 C232.25956877 97.05026248 232.25910728 98.45408634 232.25854492 99.85791016 C232.26154017 101.35008833 232.26494354 102.84226574 232.26872253 104.33444214 C232.27752964 108.3738306 232.27989926 112.41319786 232.28053832 116.452595 C232.2812507 118.98026704 232.28338858 121.50793376 232.28603554 124.03560448 C232.29527813 132.86521113 232.29937179 141.69480273 232.29858398 150.52441406 C232.29798351 158.73650287 232.30853218 166.94852592 232.32432765 175.1605981 C232.33743132 182.22665759 232.34276669 189.29269567 232.34212857 196.35876721 C232.34187442 200.5720957 232.34468013 204.78536571 232.35530663 208.99868202 C232.36503529 212.96401055 232.36503432 216.92922526 232.35778999 220.89455795 C232.35675005 222.34327932 232.35907165 223.79200795 232.36515045 225.24071693 C232.40581794 235.61084028 232.12006559 245.14328789 227.23828125 254.48950195 C226.74585938 255.45500977 226.2534375 256.42051758 225.74609375 257.4152832 C219.50715649 267.96774407 209.72463047 273.49078551 198.15539932 276.74403572 C194.42395722 277.53516942 190.69644307 277.45988436 186.89599609 277.44824219 C185.55053207 277.45608231 185.55053207 277.45608231 184.17788696 277.46408081 C182.23930983 277.47428265 180.30070559 277.48009452 178.36210251 277.4819622 C175.28299123 277.48564501 172.20419657 277.5024263 169.12515259 277.52272034 C160.37369712 277.57793345 151.62219489 277.60871312 142.87060547 277.63330078 C137.50669827 277.64927446 132.14301487 277.67959837 126.7792244 277.71806526 C124.74691794 277.72963252 122.71457128 277.73564488 120.6822319 277.73574638 C109.74583328 277.73649039 99.64853859 277.92644087 89.11328125 281.17700195 C88.39655243 281.39417374 87.67982361 281.61134552 86.94137573 281.83509827 C71.77406254 286.81472167 56.25285757 296.96675232 47.11328125 310.17700195 C46.5407174 313.05431872 46.5407174 313.05431872 46.65917969 316.16064453 C46.65948181 317.34149124 46.65978394 318.52233795 46.66009521 319.7389679 C46.68074036 321.00371445 46.7013855 322.268461 46.72265625 323.5715332 C46.73114594 325.52527107 46.73114594 325.52527107 46.73980713 327.51847839 C46.75502836 330.96946296 46.79427809 334.41976658 46.83862305 337.8704834 C46.87965267 341.39639069 46.89783443 344.92240876 46.91796875 348.44848633 C46.9607771 355.35827002 47.02898474 362.26760323 47.11328125 369.17700195 C48.03471924 368.50805908 48.95615723 367.83911621 49.90551758 367.14990234 C58.67977098 360.80987989 67.4992385 355.18042982 77.11328125 350.17700195 C78.18956787 349.61432617 78.18956787 349.61432617 79.28759766 349.0402832 C95.60398715 340.62910727 112.86634276 334.88928968 130.61328125 330.30200195 C131.34023193 330.11089844 132.06718262 329.91979492 132.81616211 329.72290039 C147.20388201 326.20926774 161.75917213 325.76759203 176.48828125 325.80200195 C177.86907867 325.80331619 177.86907867 325.80331619 179.277771 325.80465698 C203.37181227 325.88002747 225.15322319 329.75114189 248.11328125 337.17700195 C247.82195312 336.04649414 247.530625 334.91598633 247.23046875 333.7512207 C244.39599056 322.63973771 241.80722924 311.48882093 239.35839844 300.28613281 C238.16707099 294.8536951 236.94955688 289.43319103 235.62109375 284.0324707 C235.38777344 283.08235107 235.15445312 282.13223145 234.9140625 281.15332031 C234.47843364 279.39585374 234.03621835 277.64000024 233.5859375 275.88623047 C232.43261684 271.23046208 231.69955763 267.01391775 232.11328125 262.17700195 C234.56328572 258.79023106 235.97720571 257.39001612 240.11328125 256.61450195 C243.93275171 257.33065266 245.36292928 258.42664998 248.11328125 261.17700195 C249.1952934 263.95094096 249.98760951 266.43503376 250.67578125 269.30200195 C250.85818359 269.99165039 251.04058594 270.68129883 251.22851562 271.3918457 C252.81318333 277.52638984 254.13053793 283.72584709 255.49499512 289.91215515 C257.28703794 298.01453707 259.18030854 306.09196142 261.09545898 314.16601562 C261.68117041 316.63723982 262.26351339 319.10924289 262.84570312 321.58129883 C264.60924981 329.0426837 266.42199924 336.47199003 268.48510742 343.85742188 C269.44886607 347.41617467 270.22356304 351.00867834 270.98828125 354.61450195 C272.05542426 359.58172253 273.18150365 364.51857365 274.48046875 369.4309082 C274.71008301 370.30626221 274.93969727 371.18161621 275.17626953 372.08349609 C275.62000959 373.75863846 276.07344234 375.43125688 276.53857422 377.10058594 C280.11890232 390.68080137 280.11890232 390.68080137 277.09887695 395.9453125 C275.67578125 397.36450195 275.67578125 397.36450195 272.11328125 399.17700195 C264.34694114 398.75996444 256.82443293 396.93705522 249.23828125 395.30200195 C222.03268086 389.57307302 195.69046344 386.75783776 167.86328125 386.80200195 C166.63160217 386.80221344 165.3999231 386.80242493 164.13092041 386.80264282 C144.82022721 386.83568494 126.12782733 387.61798894 107.11328125 391.17700195 C106.10942383 391.3589209 105.10556641 391.54083984 104.07128906 391.72827148 C84.83788925 395.32850139 65.65229173 401.16009122 48.35083008 410.38305664 C43.62464316 412.82230947 39.48601407 414.20242928 34.11328125 413.17700195 C30.81384389 412.0556527 27.73726766 410.58866884 24.61328125 409.05200195 C22.83632171 408.21767184 21.05765158 407.38697585 19.27734375 406.55981445 C18.40239258 406.15150391 17.52744141 405.74319336 16.62597656 405.32250977 C1.48061337 398.41791939 -14.55803437 394.0211934 -30.88671875 390.98950195 C-31.71510254 390.83465332 -32.54348633 390.67980469 -33.39697266 390.52026367 C-36.22137165 390.02368386 -39.04884884 389.59007897 -41.88671875 389.17700195 C-43.11567871 388.9960498 -44.34463867 388.81509766 -45.61083984 388.62866211 C-58.33457119 386.91292367 -71.03068294 386.87165177 -83.85205078 386.91625977 C-87.48487272 386.92692315 -91.11719354 386.916337 -94.75 386.90356445 C-114.00598687 386.89147996 -133.24305208 387.71012836 -152.26171875 390.92700195 C-153.2657373 391.08966553 -154.26975586 391.2523291 -155.30419922 391.41992188 C-164.4008097 392.95804024 -173.36468901 395.03810373 -182.29833984 397.33422852 C-188.85654837 398.96214528 -193.94340768 400.04488614 -200.26171875 397.05200195 C-202.68723983 394.25332378 -202.59797981 391.83436186 -202.88671875 388.17700195 C-202.49819311 385.54302667 -202.02924124 383.11968772 -201.38671875 380.55200195 C-201.20802246 379.7940332 -201.02932617 379.03606445 -200.84521484 378.25512695 C-200.20554164 375.5590972 -199.54622272 372.86824731 -198.88671875 370.17700195 C-198.34685148 367.94021687 -197.80783828 365.70322554 -197.26953125 363.46606445 C-196.38246999 359.78423489 -195.49371408 356.10285202 -194.60009766 352.42260742 C-192.3383067 343.10190787 -190.15783697 333.76467905 -188.01391602 324.41625977 C-186.33240125 317.08953966 -184.61723373 309.77195881 -182.85546875 302.46411133 C-181.733228 297.79287356 -180.64160855 293.11620071 -179.58659363 288.42926025 C-178.9696018 285.69027424 -178.34623847 282.95275071 -177.72286987 280.21520996 C-177.41817646 278.86851789 -177.11662331 277.52111103 -176.81838989 276.17297363 C-176.39864641 274.2766943 -175.96709643 272.38304032 -175.53515625 270.48950195 C-175.28942871 269.39250977 -175.04370117 268.29551758 -174.79052734 267.1652832 C-173.39390361 262.54759694 -171.92336528 259.86809964 -167.88671875 257.17700195 C-163.92676046 256.5743996 -162.36335365 256.85579148 -159.01171875 259.11450195 C-156.13392903 263.26190479 -156.14633814 266.36106829 -156.88671875 271.17700195 C-157.53848399 273.94427338 -158.26310676 276.68048898 -159.04296875 279.41430664 C-160.90347129 285.98618381 -162.3677473 292.63039295 -163.82421875 299.30200195 C-165.90928761 308.83621173 -168.07434753 318.34286422 -170.41381836 327.81811523 C-170.60854736 328.61717285 -170.80327637 329.41623047 -171.00390625 330.23950195 C-171.17519043 330.93172852 -171.34647461 331.62395508 -171.52294922 332.3371582 C-171.98370012 334.3549296 -171.98370012 334.3549296 -171.88671875 337.17700195 C-170.85675781 336.8624707 -169.82679688 336.54793945 -168.765625 336.22387695 C-161.30799822 333.97173379 -153.83526397 331.81916105 -146.26171875 329.98950195 C-145.01132813 329.68657227 -143.7609375 329.38364258 -142.47265625 329.0715332 C-129.85001581 326.46317548 -117.5301331 325.85655283 -104.68969727 325.91625977 C-101.9563167 325.92697413 -99.22359508 325.91630397 -96.49023438 325.90356445 C-82.26466444 325.89112039 -68.49978972 326.94396446 -54.63671875 330.36450195 C-53.31994141 330.68596191 -53.31994141 330.68596191 -51.9765625 331.01391602 C-25.27217115 337.76642127 8.11281593 349.17653664 28.11328125 369.17700195 C28.32288668 361.65771756 28.48226099 354.13874005 28.5795908 346.61718941 C28.62633598 343.1233735 28.68959877 339.63157232 28.79223633 336.13891602 C28.9098068 332.112366 28.95258971 328.08789184 28.9921875 324.05981445 C29.03863907 322.82087433 29.08509064 321.5819342 29.13294983 320.30545044 C29.13683946 313.55091155 28.40698112 309.7130852 23.85913086 304.57104492 C22.31752536 303.06395891 20.73524394 301.59724589 19.11328125 300.17700195 C18.2736232 299.43539825 17.43396515 298.69379456 16.56886292 297.92971802 C-2.27155438 281.81280263 -23.06060753 277.88553486 -47.04248238 277.90260696 C-50.07524112 277.90358365 -53.10765642 277.89049796 -56.1403656 277.87362671 C-64.7542768 277.82768669 -73.36814791 277.80274967 -81.98217773 277.79614258 C-87.27408331 277.79110789 -92.56562332 277.76676921 -97.85740471 277.73081589 C-99.86066422 277.72107345 -101.86397433 277.7186553 -103.86725044 277.72398758 C-123.81718405 277.77463221 -123.81718405 277.77463221 -132.88671875 273.17700195 C-133.881875 272.7077832 -134.87703125 272.23856445 -135.90234375 271.75512695 C-146.29376529 265.57840786 -152.64743309 257.12150894 -155.93374634 245.46237183 C-157.40042395 238.65710317 -157.18264698 231.75065093 -157.17724609 224.82592773 C-157.1832396 223.28581418 -157.19004702 221.74570361 -157.19760132 220.20559692 C-157.21518263 216.04435072 -157.21995329 211.8831869 -157.22123289 207.72190714 C-157.22265926 205.11682064 -157.22693797 202.51175478 -157.23222733 199.90667343 C-157.25069993 190.80357291 -157.25890121 181.70053076 -157.25732422 172.59741211 C-157.25612283 164.13528602 -157.27723179 155.67341499 -157.30881155 147.21135342 C-157.33502592 139.92527328 -157.34568939 132.6392762 -157.3444134 125.35314929 C-157.34390538 121.01064175 -157.34949968 116.66836125 -157.3707695 112.32590103 C-157.39023986 108.23978359 -157.39021688 104.15410779 -157.37573624 100.06797409 C-157.37365806 98.57612711 -157.37828941 97.08425181 -157.39045715 95.592453 C-157.49689633 81.62861776 -154.45780199 70.50067796 -144.921875 60.0168457 C-138.70523826 54.0025588 -130.55303836 48.91864964 -121.63671875 48.86450195 C-120.72921875 48.96762695 -119.82171875 49.07075195 -118.88671875 49.17700195 C-118.94472656 48.36875977 -119.00273437 47.56051758 -119.0625 46.7277832 C-119.13017578 45.12483398 -119.13017578 45.12483398 -119.19921875 43.48950195 C-119.25722656 42.43375977 -119.31523437 41.37801758 -119.375 40.2902832 C-118.69855227 35.97725251 -117.35309307 34.80929963 -113.88671875 32.17700195 C-110.57282415 31.44327255 -107.33283582 31.475754 -103.94921875 31.51293945 C-102.99152588 31.50815582 -102.03383301 31.50337219 -101.04711914 31.4984436 C-99.0265132 31.49504794 -97.00585207 31.504227 -94.98535156 31.52514648 C-91.89653764 31.55191685 -88.81135745 31.52538743 -85.72265625 31.4934082 C-83.75650241 31.49671236 -81.79035084 31.50311872 -79.82421875 31.51293945 C-78.90326416 31.5028183 -77.98230957 31.49269714 -77.03344727 31.48226929 C-72.49910957 31.56494519 -70.49927777 31.70912667 -66.79614258 34.53759766 C-64.5348873 37.66333999 -64.34488296 39.1825279 -64.57421875 42.98950195 C-64.61933594 43.96532227 -64.66445312 44.94114258 -64.7109375 45.9465332 C-64.76894531 46.68258789 -64.82695312 47.41864258 -64.88671875 48.17700195 C-62.46910999 48.06273686 -60.05324657 47.93600534 -57.63671875 47.80200195 C-56.95480469 47.77106445 -56.27289063 47.74012695 -55.5703125 47.70825195 C-51.84048291 47.49098033 -48.99079951 47.28860076 -45.88671875 45.17700195 C-44.04906099 42.4502078 -44.04906099 42.4502078 -42.42578125 39.13793945 C-42.11273041 38.53825348 -41.79967957 37.9385675 -41.47714233 37.32070923 C-40.47762526 35.40329179 -39.49354816 33.47852872 -38.51171875 31.55200195 C-29.56837487 14.10493238 -21.62809241 0.06760322 0 0 Z M-14.57006836 23.02954102 C-14.88983643 23.66085938 -15.20960449 24.29217773 -15.5390625 24.94262695 C-15.91828857 25.6603125 -16.29751465 26.37799805 -16.68823242 27.11743164 C-17.06310791 27.87958984 -17.4379834 28.64174805 -17.82421875 29.42700195 C-18.67289178 31.04173527 -19.52185633 32.6563154 -20.37109375 34.27075195 C-20.78939453 35.08672852 -21.20769531 35.90270508 -21.63867188 36.7434082 C-33.41590422 59.70808974 -33.41590422 59.70808974 -46.5296936 64.33670044 C-52.41089661 65.80883233 -58.30162757 65.69104467 -64.32452965 65.63229179 C-66.70135142 65.6101017 -69.07692208 65.6142169 -71.45381165 65.62477112 C-77.34883361 65.64626059 -83.24356265 65.62908854 -89.1385498 65.60327148 C-94.14155465 65.58180038 -99.14374629 65.58000104 -104.14673805 65.60618782 C-106.47586207 65.61050747 -108.80353177 65.58600751 -111.13249207 65.56065369 C-118.87051348 65.55370584 -124.96311487 65.76463387 -130.88671875 71.17700195 C-131.55445313 71.78543945 -132.2221875 72.39387695 -132.91015625 73.02075195 C-133.57917969 73.8405957 -133.57917969 73.8405957 -134.26171875 74.67700195 C-134.72320312 75.22356445 -135.1846875 75.77012695 -135.66015625 76.33325195 C-138.56908618 80.70591096 -139.14083109 84.55018174 -139.16760254 89.74723816 C-139.17354478 90.39373945 -139.17948703 91.04024074 -139.18560934 91.70633298 C-139.20290212 93.86482194 -139.20599279 96.02308799 -139.20898438 98.18164062 C-139.21824663 99.73264027 -139.22829675 101.28363539 -139.23907471 102.83462524 C-139.26527263 107.04354238 -139.27820307 111.25239577 -139.28709602 115.46138167 C-139.29296639 118.09391045 -139.30117773 120.72642197 -139.31010437 123.35894203 C-139.33744283 131.60398404 -139.35678098 139.84898643 -139.36450815 148.09407061 C-139.37346326 157.59594618 -139.40853436 167.09724542 -139.46650934 176.5989458 C-139.50981908 183.95371866 -139.52992078 191.30832984 -139.53259039 198.66322881 C-139.53468134 203.05117019 -139.54638437 207.43856941 -139.58222961 211.82637596 C-139.61532386 215.95772481 -139.61943998 220.0881279 -139.6019516 224.21956253 C-139.60041774 225.72958355 -139.60900553 227.2396568 -139.6288681 228.74954796 C-139.74092541 237.80420479 -139.07423548 245.08600628 -132.88671875 252.17700195 C-125.40109986 258.41429176 -118.4297046 260.47543941 -108.82714844 260.46411133 C-107.93525314 260.47094437 -107.04335785 260.4777774 -106.12443542 260.4848175 C-104.19457249 260.49836801 -102.26467402 260.50744532 -100.3347702 260.51252747 C-97.27336794 260.52084769 -94.21225954 260.54138361 -91.15093994 260.56506348 C-84.64624345 260.61321166 -78.14151734 260.64617239 -71.63671875 260.67700195 C-64.10931481 260.71276258 -56.58205427 260.75485966 -49.05478668 260.8129425 C-46.05153942 260.8328838 -43.04840435 260.84130583 -40.04510498 260.84924316 C-38.18468836 260.86222848 -36.32427538 260.87575065 -34.46386719 260.88989258 C-33.63962753 260.88891068 -32.81538788 260.88792877 -31.96617126 260.88691711 C-15.29503024 261.06203705 -0.33085254 267.42253276 14.11328125 275.17700195 C15.04269531 275.66040039 15.97210938 276.14379883 16.9296875 276.6418457 C22.72708803 279.8522842 27.34550187 283.90466929 32.00488281 288.57080078 C35.35411967 291.85300072 35.35411967 291.85300072 40.11328125 292.17700195 C42.34885595 290.23784161 42.34885595 290.23784161 44.55078125 287.67700195 C60.61723812 270.99893764 86.68076535 260.6717822 109.77580261 259.99095154 C114.2775023 259.91040806 118.77893647 259.89937336 123.2812748 259.90260696 C126.28808681 259.90358445 129.29455322 259.8904907 132.30131531 259.87362671 C140.83992979 259.82769711 149.37850218 259.80273098 157.91723633 259.79614258 C163.16489626 259.79112037 168.41218532 259.76685017 173.65971947 259.73081589 C175.64871174 259.72104986 177.63775516 259.71866839 179.6267643 259.72398758 C182.40693435 259.73108182 185.18599884 259.71373263 187.96606445 259.69116211 C189.18268768 259.70342079 189.18268768 259.70342079 190.42388916 259.71592712 C197.11342482 259.61970612 202.30237502 257.6402177 207.35546875 253.2121582 C208.16371094 252.23569336 208.16371094 252.23569336 208.98828125 251.23950195 C209.54257812 250.59110352 210.096875 249.94270508 210.66796875 249.2746582 C213.74639363 244.8067821 214.36514043 240.96922026 214.38070679 235.5933075 C214.38750346 234.62143886 214.38750346 234.62143886 214.39443743 233.62993652 C214.4070609 231.46675942 214.40546243 229.30383477 214.40380859 227.140625 C214.40979517 225.58638181 214.41660102 224.03214159 214.42416382 222.47790527 C214.44181876 218.26084061 214.44651901 214.04385714 214.44779539 209.8267591 C214.44921794 207.19022578 214.45348952 204.55371304 214.45878983 201.91718483 C214.47728906 192.71381955 214.48546065 183.51051217 214.48388672 174.30712891 C214.48268563 165.7371008 214.5037817 157.16732467 214.53537405 148.59736031 C214.56155368 141.23242756 214.57225329 133.86757702 214.5709759 126.50259811 C214.57046672 122.10703122 214.5761252 117.71168825 214.597332 113.31616783 C214.61674269 109.18004684 214.61681974 105.04436271 214.60229874 100.90822601 C214.60021297 99.39415916 214.60489773 97.88006476 214.61701965 96.366045 C214.68567197 87.19398344 214.50511637 80.10066086 208.11328125 72.93481445 C207.45328125 72.39598633 206.79328125 71.8571582 206.11328125 71.30200195 C205.45328125 70.74770508 204.79328125 70.1934082 204.11328125 69.62231445 C199.75487363 66.47268395 196.7421256 65.92723307 191.31616211 65.92163086 C190.64074371 65.91801041 189.96532532 65.91438995 189.2694397 65.91065979 C187.80552964 65.90377879 186.34159399 65.90125793 184.87766838 65.90260696 C182.55121079 65.90357566 180.22521095 65.89058654 177.89881897 65.87362671 C171.28520325 65.82748101 164.67163253 65.80278812 158.05786133 65.79614258 C154.0070623 65.79109183 149.9567371 65.76665679 145.90609932 65.73081589 C144.37174911 65.72109333 142.83733306 65.71864422 141.30296135 65.72398758 C130.52167591 65.75974573 119.12691086 65.23448852 110.84375 57.36450195 C105.37892635 50.45637273 101.60106345 42.08017186 97.59765625 34.27075195 C97.17266846 33.46283203 96.74768066 32.65491211 96.30981445 31.82250977 C95.49106379 30.26470843 94.69152725 28.69660374 93.91479492 27.11743164 C93.53556885 26.39974609 93.15634277 25.68206055 92.765625 24.94262695 C92.44585693 24.31130859 92.12608887 23.67999023 91.79663086 23.02954102 C88.21784797 19.0910632 83.17393188 17.00539826 77.90222168 16.66906738 C76.3835593 16.64564947 74.86446255 16.6434985 73.34570312 16.65942383 C72.50882462 16.65241455 71.67194611 16.64540527 70.80970764 16.63818359 C68.06680273 16.62070095 65.32494509 16.63219133 62.58203125 16.64575195 C60.66206669 16.64305424 58.74210346 16.63916949 56.82214355 16.63415527 C52.80756563 16.6282734 48.79334485 16.63678083 44.77880859 16.65551758 C39.64758623 16.67830628 34.51720091 16.66517616 29.38600922 16.64122772 C25.42415119 16.62673425 21.46248974 16.63139199 17.50062561 16.64173889 C15.60929768 16.64439637 13.71795158 16.64117106 11.8266449 16.63182068 C9.17757272 16.62159635 6.52983298 16.63723735 3.88085938 16.65942383 C2.72258385 16.64727844 2.72258385 16.64727844 1.54090881 16.6348877 C-4.5914593 16.72944939 -10.33324365 18.36688317 -14.57006836 23.02954102 Z " fill="#E87726" transform="translate(247.88671875,60.822998046875)"/>
<path d="M0 0 C17.85618366 15.11718203 31.16192757 35.49738392 33.6484375 59.2421875 C35.30018933 83.79749479 28.83161746 108.08700979 12.625 127.046875 C11.97273437 127.77132812 11.32046875 128.49578125 10.6484375 129.2421875 C10.05804688 129.92539062 9.46765625 130.60859375 8.859375 131.3125 C-6.23237895 147.68865854 -29.36196795 156.12611381 -51.06640625 157.47265625 C-73.60665723 157.96934594 -95.69668345 149.9860904 -112.12475586 134.42431641 C-113.54574284 133.04255985 -114.94905772 131.64270009 -116.3515625 130.2421875 C-117.4653125 129.14583984 -117.4653125 129.14583984 -118.6015625 128.02734375 C-133.79933767 112.08748971 -140.89526212 90.25922392 -140.70068359 68.61328125 C-140.05466177 42.84272352 -130.48263977 22.40302691 -112.234375 4.12109375 C-102.76105408 -4.77966382 -91.67566147 -10.79488664 -79.3515625 -14.7578125 C-78.40667969 -15.0775 -77.46179688 -15.3971875 -76.48828125 -15.7265625 C-50.23577324 -23.2372138 -21.29899449 -16.43796272 0 0 Z " fill="#FEFBF9" transform="translate(339.3515625,151.7578125)"/>
<path d="M0 0 C17.85618366 15.11718203 31.16192757 35.49738392 33.6484375 59.2421875 C35.30018933 83.79749479 28.83161746 108.08700979 12.625 127.046875 C11.97273437 127.77132812 11.32046875 128.49578125 10.6484375 129.2421875 C10.05804688 129.92539062 9.46765625 130.60859375 8.859375 131.3125 C-6.23237895 147.68865854 -29.36196795 156.12611381 -51.06640625 157.47265625 C-73.60665723 157.96934594 -95.69668345 149.9860904 -112.12475586 134.42431641 C-113.54574284 133.04255985 -114.94905772 131.64270009 -116.3515625 130.2421875 C-117.4653125 129.14583984 -117.4653125 129.14583984 -118.6015625 128.02734375 C-133.79933767 112.08748971 -140.89526212 90.25922392 -140.70068359 68.61328125 C-140.05466177 42.84272352 -130.48263977 22.40302691 -112.234375 4.12109375 C-102.76105408 -4.77966382 -91.67566147 -10.79488664 -79.3515625 -14.7578125 C-78.40667969 -15.0775 -77.46179688 -15.3971875 -76.48828125 -15.7265625 C-50.23577324 -23.2372138 -21.29899449 -16.43796272 0 0 Z M-107.0390625 24.3046875 C-110.47776144 28.70646909 -113.196219 33.28313723 -115.7265625 38.2421875 C-116.04842529 38.8700415 -116.37028809 39.49789551 -116.7019043 40.14477539 C-124.29198472 55.8488746 -125.39337044 75.58465766 -119.7890625 92.1171875 C-112.95733494 110.54406773 -99.19843425 125.56417291 -81.44921875 133.9921875 C-76.53643624 135.97464703 -71.53469949 137.19653287 -66.3515625 138.2421875 C-65.14886719 138.51675781 -65.14886719 138.51675781 -63.921875 138.796875 C-46.55685396 141.80540448 -27.72438257 137.24138256 -13.3515625 127.2421875 C-1.81852169 118.5681074 6.27749187 107.60709871 11.6484375 94.2421875 C11.9990625 93.39785156 12.3496875 92.55351562 12.7109375 91.68359375 C18.89511686 75.57896 16.4569946 56.13526774 9.796875 40.63671875 C5.65384237 31.99835479 0.35712147 25.06614095 -6.3515625 18.2421875 C-6.97804688 17.6028125 -7.60453125 16.9634375 -8.25 16.3046875 C-22.99601674 2.367524 -40.93603672 -0.68274425 -60.390625 -0.140625 C-79.11102937 0.7915843 -94.83281379 10.36067096 -107.0390625 24.3046875 Z " fill="#E77525" transform="translate(339.3515625,151.7578125)"/>
<path d="M0 0 C7.98722284 6.51411406 13.39693543 15.24372667 15.62109375 25.3203125 C17.05998362 40.83803723 15.57379408 53.21508443 5.890625 65.80859375 C-0.80695408 73.22088867 -10.43341677 78.82421451 -20.37890625 80.3203125 C-35.51756275 81.00625795 -47.69252697 79.27694264 -59.62890625 69.1328125 C-69.13027465 60.10874989 -73.26126558 49.69252733 -73.83203125 36.73779297 C-74.07542878 24.50960261 -70.7660576 14.45087045 -62.37890625 5.3203125 C-44.90390908 -12.65877113 -20.55701499 -14.51480533 0 0 Z " fill="#E87624" transform="translate(314.37890625,185.6796875)"/>
<path d="M0 0 C1.27402679 0.00598206 1.27402679 0.00598206 2.5737915 0.01208496 C15.12903903 0.0810909 27.26664738 0.66529892 39.5625 3.375 C40.99328261 3.65730102 42.42427449 3.93854337 43.85546875 4.21875 C48.14315351 5.09998821 52.35333131 6.17566766 56.5625 7.375 C57.81667725 7.73053955 57.81667725 7.73053955 59.09619141 8.09326172 C61.72796574 8.86805686 64.33205366 9.70365396 66.9375 10.5625 C67.7529126 10.80516602 68.5683252 11.04783203 69.40844727 11.29785156 C72.76021218 12.47351038 74.94500779 13.26871944 76.72094727 16.45043945 C77.50574026 18.74922003 78.08030698 20.99584255 78.5625 23.375 C78.92408203 24.71498047 78.92408203 24.71498047 79.29296875 26.08203125 C79.44378906 26.77683594 79.59460938 27.47164063 79.75 28.1875 C79.90855469 28.89519531 80.06710937 29.60289062 80.23046875 30.33203125 C80.5625 32.375 80.5625 32.375 80.5625 36.375 C79.91514893 36.23924561 79.26779785 36.10349121 78.60083008 35.96362305 C16.20321926 22.96251606 -59.71293294 17.33055917 -119.38989258 44.27880859 C-121.05141693 45.02612904 -122.74229982 45.70758157 -124.4375 46.375 C-125.0975 46.045 -125.7575 45.715 -126.4375 45.375 C-103.34630278 27.12499172 -77.94809649 14.15080539 -49.625 6.1875 C-48.79734131 5.9495874 -47.96968262 5.7116748 -47.11694336 5.46655273 C-31.56402801 1.25488876 -16.05753899 -0.1542435 0 0 Z " fill="#FEFAF8" transform="translate(425.4375,403.625)"/>
<path d="M0 0 C0.85522247 -0.00139984 1.71044495 -0.00279968 2.59158325 -0.00424194 C17.99454398 0.01639367 32.46966631 1.58692159 47.4375 5.4375 C48.21480469 5.63504883 48.99210938 5.83259766 49.79296875 6.03613281 C54.43259428 7.25942206 58.94086836 8.7639499 63.4375 10.4375 C64.18451172 10.70900879 64.93152344 10.98051758 65.70117188 11.26025391 C87.86363817 19.39817492 108.25893995 30.315512 126.4375 45.4375 C125.4475 45.9325 125.4475 45.9325 124.4375 46.4375 C122.36491002 45.63850154 120.32864775 44.74479611 118.3125 43.8125 C94.30785837 33.16612876 68.40367594 29.64572239 42.4375 27.4375 C41.34848389 27.34106201 40.25946777 27.24462402 39.13745117 27.14526367 C29.42120219 26.35795235 19.74155111 26.23801435 10 26.25 C9.16500977 26.25027191 8.33001953 26.25054382 7.46972656 26.25082397 C-5.96952643 26.270884 -19.21237019 26.8040249 -32.5625 28.4375 C-33.90441406 28.59025391 -33.90441406 28.59025391 -35.2734375 28.74609375 C-48.87881833 30.30705104 -62.13381926 32.88569262 -75.4597168 36.02612305 C-77.5625 36.4375 -77.5625 36.4375 -80.5625 36.4375 C-79.9213567 33.1449017 -79.27379104 29.85359917 -78.625 26.5625 C-78.44259766 25.62535156 -78.26019531 24.68820312 -78.07226562 23.72265625 C-77.89501953 22.82675781 -77.71777344 21.93085938 -77.53515625 21.0078125 C-77.37281494 20.18039551 -77.21047363 19.35297852 -77.04321289 18.50048828 C-76.5625 16.4375 -76.5625 16.4375 -75.5625 14.4375 C-72.73934757 13.21924836 -69.95952175 12.14066368 -67.0625 11.125 C-66.18335937 10.81667236 -65.30421875 10.50834473 -64.3984375 10.19067383 C-54.31317856 6.808144 -43.96567253 4.78442344 -33.50170898 2.95678711 C-31.59570288 2.62004195 -29.69357502 2.2602169 -27.79711914 1.87329102 C-18.5571989 0.08984025 -9.37791707 -0.00147009 0 0 Z " fill="#FEFAF8" transform="translate(145.5625,403.5625)"/>
<path d="M0 0 C1.27101563 -0.01095703 2.54203125 -0.02191406 3.8515625 -0.03320312 C14.33467599 0.0495583 14.33467599 0.0495583 19 4.5625 C21.1615286 8.88555719 20.27426848 14.62664464 20.3125 19.375 C20.34150391 20.56416016 20.37050781 21.75332031 20.40039062 22.97851562 C20.40876953 24.12642578 20.41714844 25.27433594 20.42578125 26.45703125 C20.44036377 27.50737549 20.45494629 28.55771973 20.4699707 29.63989258 C19.88395186 33.28416875 18.53266275 34.93023981 16 37.5625 C11.43702522 39.84398739 5.19679441 38.88269917 0.1875 38.9375 C-1.73932617 38.99357422 -1.73932617 38.99357422 -3.70507812 39.05078125 C-4.94322266 39.06238281 -6.18136719 39.07398438 -7.45703125 39.0859375 C-8.59116455 39.10575684 -9.72529785 39.12557617 -10.89379883 39.14599609 C-15.06040642 38.36330395 -16.49137413 36.93815981 -19 33.5625 C-19.64697266 30.50390625 -19.64697266 30.50390625 -19.6640625 27.125 C-19.67050781 25.90039062 -19.67695313 24.67578125 -19.68359375 23.4140625 C-19.66425781 22.14304688 -19.64492188 20.87203125 -19.625 19.5625 C-19.64433594 18.29148438 -19.66367187 17.02046875 -19.68359375 15.7109375 C-19.65713958 10.68464551 -19.59456963 6.75582637 -17.3359375 2.22265625 C-11.76124107 -0.55163647 -6.12893862 -0.1149953 0 0 Z " fill="#E87625" transform="translate(422,149.4375)"/>
<path d="M0 0 C3.98381075 2.16264012 6.88983545 4.71211176 10 8 C8.5410574 7.52269162 7.08286504 7.04308958 5.625 6.5625 C4.81289063 6.29566406 4.00078125 6.02882813 3.1640625 5.75390625 C1 5 1 5 -1 4 C-0.67 2.68 -0.34 1.36 0 0 Z " fill="#FDE0D1" transform="translate(262,442)"/>
<path d="M0 0 C0.33 0.66 0.66 1.32 1 2 C-1.31 2 -3.62 2 -6 2 C-6.66 3.32 -7.32 4.64 -8 6 C-8.66 5.01 -9.32 4.02 -10 3 C-6.68152292 -0.06320961 -4.44849969 -0.3033068 0 0 Z " fill="#E57537" transform="translate(491,318)"/>
<path d="M0 0 C0.99 0.66 1.98 1.32 3 2 C0.16569547 5.2542015 -1.68607774 6.5206753 -6 7 C-4.02 4.69 -2.04 2.38 0 0 Z " fill="#E16A23" transform="translate(227,66)"/>
</svg>
